<svg
        xmlns="http://www.w3.org/2000/svg"
        xmlns:xlink="http://www.w3.org/1999/xlink"
        width="999px" height="999px">
    <path fill-rule="evenodd" opacity="1" fill="rgb(236, 236, 236)"
          d="M967.542,335.813 L971.146,334.494 C988.358,383.625 997.662,434.930 998.886,487.537 L995.048,487.537 C993.826,435.384 984.600,384.521 967.542,335.813 ZM956.239,306.538 C932.058,249.365 897.741,197.855 854.246,153.305 L856.960,150.591 C900.805,195.493 935.398,247.412 959.772,305.043 C961.716,309.639 963.579,314.259 965.380,318.897 L961.776,320.216 C959.998,315.637 958.158,311.076 956.239,306.538 ZM715.630,53.250 L717.245,49.768 C764.291,72.555 807.195,102.435 845.165,138.870 L842.451,141.584 C804.803,105.468 762.266,75.846 715.630,53.250 ZM828.351,155.685 C792.373,121.232 751.749,92.956 707.232,71.348 L708.848,67.866 C753.774,89.665 794.765,118.199 831.065,152.972 L828.351,155.685 ZM692.445,42.722 C633.804,17.917 571.657,4.854 507.600,3.838 L507.600,-0.000 C572.174,1.016 634.823,14.181 693.939,39.188 C696.696,40.354 699.426,41.568 702.157,42.781 L700.542,46.262 C697.851,45.068 695.161,43.871 692.445,42.722 ZM296.685,956.150 L298.300,952.669 C301.043,953.887 303.785,955.106 306.555,956.278 C365.065,981.029 427.067,994.087 490.973,995.154 L490.973,998.992 C426.550,997.925 364.047,984.763 305.061,959.812 C302.251,958.623 299.468,957.387 296.685,956.150 ZM305.082,938.052 L306.698,934.571 C309.230,935.694 311.761,936.821 314.317,937.903 C370.369,961.612 429.759,974.143 490.973,975.208 L490.973,979.046 C429.242,977.981 369.349,965.347 312.822,941.437 C310.226,940.338 307.655,939.194 305.082,938.052 ZM313.479,919.955 L315.029,916.615 C369.842,940.882 429.408,954.123 490.973,955.246 L490.973,959.083 C431.936,958.019 374.652,945.933 320.584,923.061 C318.200,922.053 315.841,921.001 313.479,919.955 ZM323.430,898.510 C375.643,921.574 432.357,934.186 490.973,935.304 L490.973,939.141 C431.790,938.023 374.527,925.289 321.813,901.994 L323.430,898.510 ZM331.831,880.404 C381.445,902.264 435.306,914.249 490.973,915.361 L490.973,919.199 C434.738,918.086 380.329,905.980 330.215,883.888 L331.831,880.404 ZM340.232,862.298 C387.246,882.957 438.255,894.313 490.973,895.420 L490.973,899.257 C437.687,898.149 386.130,886.673 338.616,865.782 L340.232,862.298 ZM348.633,844.193 C393.047,863.650 441.203,874.378 490.973,875.478 L490.973,879.315 C440.636,878.214 391.931,867.366 347.016,847.677 L348.633,844.193 ZM357.034,826.087 C398.848,844.343 444.152,854.443 490.973,855.535 L490.973,859.372 C443.585,858.278 397.732,848.058 355.418,829.571 L357.034,826.087 ZM365.435,807.981 C404.648,825.037 447.101,834.506 490.973,835.590 L490.973,839.430 C446.533,838.344 403.532,828.752 363.819,811.465 L365.435,807.981 ZM373.836,789.876 C410.447,805.732 450.049,814.561 490.973,815.637 L490.973,819.476 C449.482,818.398 409.331,809.447 372.219,793.361 L373.836,789.876 ZM382.237,771.770 C416.246,786.428 452.999,794.616 490.973,795.682 L490.973,799.521 C452.431,798.453 415.130,790.142 380.621,775.253 L382.237,771.770 ZM390.638,753.664 C422.044,767.124 455.947,774.673 490.973,775.728 L490.973,779.568 C455.380,778.511 420.929,770.839 389.021,757.148 L390.638,753.664 ZM399.094,735.441 C427.473,747.566 458.468,754.704 490.973,755.773 L490.973,759.612 C457.891,758.541 426.350,751.274 397.478,738.923 L399.094,735.441 ZM407.489,717.349 C433.307,728.296 461.462,734.765 490.973,735.817 L490.973,739.657 C460.886,738.601 432.184,732.004 405.873,720.830 L407.489,717.349 ZM415.890,699.243 C439.146,709.016 464.456,714.829 490.973,715.862 L490.973,719.702 C463.879,718.665 438.022,712.726 414.273,702.728 L415.890,699.243 ZM424.291,681.136 C444.983,689.737 467.448,694.898 490.973,695.907 L490.973,699.747 C466.872,698.733 443.860,693.447 422.675,684.620 L424.291,681.136 ZM432.693,663.028 C450.819,670.461 470.440,674.970 490.973,675.951 L490.973,679.791 C469.864,678.804 449.696,674.170 431.077,666.512 L432.693,663.028 ZM441.095,644.921 C456.650,651.192 473.431,655.039 490.973,655.984 L490.973,659.829 C472.855,658.877 455.528,654.899 439.478,648.406 L441.095,644.921 ZM449.498,626.811 C462.476,631.927 476.421,635.104 490.973,636.004 L490.973,639.849 C475.846,638.939 461.355,635.636 447.880,630.298 L449.498,626.811 ZM457.912,608.678 C468.307,612.652 479.408,615.184 490.973,616.023 L490.973,619.868 C478.833,619.016 467.186,616.360 456.293,612.167 L457.912,608.678 ZM466.328,590.540 C474.125,593.390 482.393,595.243 490.973,595.996 L490.973,599.843 C481.820,599.072 473.006,597.095 464.708,594.031 L466.328,590.540 ZM474.768,572.350 C479.947,574.113 485.367,575.346 490.973,575.967 L490.973,579.835 C484.795,579.184 478.830,577.819 473.144,575.850 L474.768,572.350 ZM480.718,420.939 C484.063,420.138 487.482,419.532 490.973,419.164 L490.973,423.032 C487.940,423.368 484.964,423.890 482.047,424.569 L480.718,420.939 ZM473.821,402.098 C479.366,400.635 485.100,399.650 490.973,399.156 L490.973,403.003 C485.559,403.478 480.267,404.379 475.143,405.711 L473.821,402.098 ZM466.938,383.295 C474.666,381.126 482.706,379.712 490.973,379.132 L490.973,382.977 C483.167,383.543 475.572,384.881 468.262,386.912 L466.938,383.295 ZM460.066,364.522 C469.964,361.625 480.310,359.792 490.973,359.151 L490.973,362.996 C480.771,363.627 470.869,365.377 461.388,368.132 L460.066,364.522 ZM453.198,345.760 C465.259,342.120 477.909,339.857 490.973,339.170 L490.973,343.015 C478.371,343.694 466.165,345.875 454.520,349.371 L453.198,345.760 ZM446.330,326.998 C460.547,322.606 475.509,319.931 490.973,319.207 L490.973,323.047 C475.971,323.764 461.454,326.362 447.652,330.608 L446.330,326.998 ZM439.467,308.247 C455.836,303.097 473.106,300.004 490.973,299.252 L490.973,303.092 C473.569,303.839 456.742,306.849 440.787,311.853 L439.467,308.247 ZM432.607,289.509 C451.127,283.594 470.703,280.073 490.973,279.298 L490.973,283.137 C471.166,283.909 452.034,287.348 433.927,293.114 L432.607,289.509 ZM425.748,270.769 C446.417,264.088 468.299,260.138 490.973,259.342 L490.973,263.182 C468.762,263.974 447.323,267.841 427.068,274.375 L425.748,270.769 ZM418.888,252.030 C441.704,244.577 465.894,240.199 490.973,239.387 L490.973,243.227 C466.357,244.036 442.611,248.332 420.208,255.636 L418.888,252.030 ZM411.984,233.169 C437.229,224.901 463.769,220.240 490.973,219.432 L490.973,223.272 C464.226,224.077 438.131,228.660 413.305,236.778 L411.984,233.169 ZM405.120,214.416 C432.538,205.367 461.393,200.297 490.973,199.477 L490.973,203.317 C461.850,204.135 433.441,209.126 406.440,218.025 L405.120,214.416 ZM398.260,195.677 C427.852,185.846 459.017,180.353 490.973,179.523 L490.973,183.362 C459.474,184.191 428.754,189.602 399.580,199.283 L398.260,195.677 ZM391.401,176.939 C423.166,166.325 456.640,160.409 490.973,159.569 L490.973,163.409 C457.097,164.246 424.068,170.082 392.721,180.544 L391.401,176.939 ZM384.541,158.200 C418.478,146.802 454.264,140.474 490.973,139.626 L490.973,143.464 C454.721,144.310 419.380,150.559 385.861,161.806 L384.541,158.200 ZM377.682,139.462 C413.790,127.279 451.888,120.540 490.973,119.684 L490.973,123.522 C452.345,124.376 414.692,131.036 379.002,143.068 L377.682,139.462 ZM370.823,120.723 C409.101,107.755 449.512,100.604 490.973,99.742 L490.973,103.580 C449.969,104.440 410.004,111.512 372.143,124.329 L370.823,120.723 ZM363.963,101.984 C404.413,88.230 447.135,80.668 490.973,79.800 L490.973,83.637 C447.592,84.504 405.315,91.987 365.283,105.589 L363.963,101.984 ZM357.104,83.246 C399.724,68.705 444.759,60.732 490.973,59.858 L490.973,63.696 C445.216,64.568 400.626,72.462 358.424,86.851 L357.104,83.246 ZM350.277,64.595 C395.465,49.066 442.629,40.788 490.973,39.917 L490.973,43.754 C442.840,44.631 395.937,52.936 351.565,68.113 L350.277,64.595 ZM343.413,45.844 C390.795,29.515 440.263,20.828 490.973,19.952 L490.973,23.791 C440.717,24.665 391.691,33.274 344.733,49.449 L343.413,45.844 ZM336.555,27.109 C386.130,9.981 437.899,0.887 490.973,0.008 L490.973,3.846 C438.353,4.724 387.026,13.740 337.874,30.713 L336.555,27.109 ZM181.865,167.239 C222.392,128.450 269.009,97.754 320.584,75.937 C325.248,73.965 329.944,72.102 334.655,70.289 L335.925,73.760 C280.204,95.150 228.854,127.591 184.581,169.955 L181.865,167.239 ZM170.478,155.851 L167.765,153.138 C210.126,112.519 258.873,80.383 312.822,57.562 C317.785,55.464 322.776,53.459 327.789,51.534 L329.108,55.138 C324.154,57.041 319.222,59.022 314.317,61.097 C260.825,83.724 212.487,115.583 170.478,155.851 ZM156.379,141.750 L153.665,139.036 C197.859,96.589 248.737,63.013 305.061,39.188 C310.323,36.962 315.615,34.837 320.931,32.799 L322.251,36.403 C316.992,38.420 311.759,40.521 306.555,42.722 C250.689,66.354 200.220,99.653 156.379,141.750 ZM50.809,279.713 C74.086,232.196 104.628,188.939 141.874,150.761 L144.588,153.475 C107.662,191.332 77.377,234.220 54.291,281.329 L50.809,279.713 ZM3.952,487.537 L0.114,487.537 C1.585,424.322 14.722,362.986 39.228,305.043 C40.687,301.593 42.192,298.167 43.724,294.757 L47.205,296.372 C45.691,299.742 44.204,303.127 42.762,306.538 C18.457,364.006 5.422,424.838 3.952,487.537 ZM30.420,660.168 L26.816,661.487 C9.492,611.001 0.489,558.247 -0.000,504.166 L3.837,504.166 C4.326,557.795 13.251,610.105 30.420,660.168 ZM42.762,692.461 C66.235,747.963 99.239,798.144 140.938,841.787 L138.224,844.501 C96.174,800.507 62.894,749.916 39.228,693.956 C36.869,688.377 34.618,682.766 32.469,677.126 L36.073,675.807 C38.200,681.388 40.427,686.940 42.762,692.461 ZM283.216,945.674 L281.600,949.154 C232.990,925.589 188.814,894.435 149.927,856.313 L152.642,853.599 C191.207,891.402 235.015,922.298 283.216,945.674 ZM178.128,828.111 L180.843,825.396 C216.343,860.134 256.526,888.391 299.965,909.575 L298.396,912.957 C254.025,891.368 213.678,862.902 178.128,828.111 ZM192.229,814.009 L194.942,811.295 C228.761,844.355 267.017,871.268 308.363,891.476 L306.747,894.958 C264.998,874.562 226.371,847.390 192.229,814.009 ZM206.329,799.907 L209.042,797.194 C241.179,828.574 277.507,854.142 316.763,873.373 L315.146,876.857 C275.489,857.438 238.789,831.611 206.329,799.907 ZM220.429,785.806 L223.143,783.092 C253.596,812.794 287.998,837.019 325.161,855.273 L323.545,858.756 C285.979,840.314 251.206,815.831 220.429,785.806 ZM234.528,771.706 L237.242,768.992 C266.013,797.015 298.488,819.896 333.560,837.173 L331.944,840.655 C296.469,823.191 263.624,800.051 234.528,771.706 ZM248.629,757.604 L251.342,754.891 C278.430,781.235 308.978,802.773 341.959,819.071 L340.343,822.554 C306.960,806.068 276.041,784.271 248.629,757.604 ZM262.729,743.503 L265.442,740.789 C290.847,765.456 319.468,785.651 350.358,800.971 L348.742,804.454 C317.449,788.946 288.458,768.493 262.729,743.503 ZM276.828,729.402 L279.542,726.688 C303.263,749.678 329.957,768.530 358.756,782.870 L357.140,786.353 C327.939,771.825 300.874,752.714 276.828,729.402 ZM290.929,715.300 L293.642,712.587 C315.679,733.899 340.446,751.410 367.155,764.769 L365.539,768.252 C338.428,754.703 313.290,736.935 290.929,715.300 ZM305.028,701.200 L307.742,698.486 C328.095,718.121 350.935,734.290 375.554,746.668 L373.938,750.151 C348.917,737.584 325.706,721.158 305.028,701.200 ZM319.214,687.013 L321.926,684.301 C340.238,701.906 361.151,716.821 384.026,728.409 L382.410,731.891 C359.127,720.110 337.843,704.934 319.214,687.013 ZM333.307,672.918 L336.019,670.206 C352.683,686.174 371.672,699.732 392.421,710.316 L390.806,713.798 C369.647,703.020 350.288,689.201 333.307,672.918 ZM347.400,658.824 L350.112,656.112 C365.127,670.443 382.193,682.641 400.818,692.218 L399.201,695.703 C380.167,685.932 362.732,673.470 347.400,658.824 ZM361.498,644.725 L364.212,642.011 C377.576,654.706 392.719,665.541 409.221,674.109 L407.604,677.594 C390.694,668.832 375.180,657.734 361.498,644.725 ZM375.600,630.621 L378.314,627.908 C390.025,638.968 403.244,648.443 417.624,655.999 L416.007,659.483 C401.219,651.733 387.629,641.996 375.600,630.621 ZM389.701,616.519 L392.415,613.805 C402.471,623.234 413.765,631.352 426.027,637.889 L424.410,641.374 C411.741,634.640 400.076,626.262 389.701,616.519 ZM403.803,602.417 L406.516,599.703 C414.913,607.502 424.283,614.268 434.430,619.780 L432.813,623.265 C422.259,617.555 412.519,610.529 403.803,602.417 ZM417.904,588.314 L420.617,585.601 C427.350,591.775 434.808,597.168 442.844,601.645 L441.225,605.135 C432.783,600.459 424.957,594.801 417.904,588.314 ZM432.012,574.205 L434.730,571.487 C439.789,576.044 445.338,580.059 451.272,583.482 L449.652,586.974 C443.314,583.347 437.394,579.072 432.012,574.205 ZM446.138,560.078 L448.856,557.359 C452.227,560.314 455.844,562.993 459.694,565.330 L458.074,568.824 C453.824,566.274 449.835,563.339 446.138,560.078 ZM466.352,430.066 C461.579,432.355 457.083,435.128 452.914,438.311 L450.183,435.580 C454.769,432.032 459.739,428.961 465.030,426.454 L466.352,430.066 ZM459.480,411.294 C452.007,414.698 445.038,419.015 438.723,424.119 L435.992,421.387 C442.716,415.909 450.163,411.296 458.158,407.681 L459.480,411.294 ZM452.602,392.503 C442.412,396.988 432.980,402.885 424.555,409.949 L421.833,407.228 C430.661,399.784 440.567,393.583 451.281,388.893 L452.602,392.503 ZM445.735,373.742 C432.820,379.286 420.924,386.762 410.413,395.806 L407.691,393.084 C418.602,383.657 430.973,375.878 444.413,370.132 L445.735,373.742 ZM438.870,354.989 C423.225,361.579 408.870,370.641 396.287,381.679 L393.570,378.962 C406.551,367.540 421.379,358.173 437.550,351.383 L438.870,354.989 ZM432.011,336.250 C413.633,343.878 396.814,354.520 382.170,367.561 L379.453,364.844 C394.494,351.418 411.787,340.471 430.691,332.645 L432.011,336.250 ZM425.151,317.512 C404.038,326.170 384.752,338.395 368.052,353.442 L365.335,350.725 C382.431,335.291 402.191,322.763 423.831,313.906 L425.151,317.512 ZM418.292,298.773 C394.441,308.459 372.687,322.265 353.936,339.324 L351.222,336.610 C370.368,319.164 392.594,305.050 416.972,295.167 L418.292,298.773 ZM411.433,280.034 C384.843,290.744 360.633,306.148 339.834,325.222 L337.121,322.508 C358.313,303.046 382.996,287.335 410.113,276.428 L411.433,280.034 ZM404.573,261.295 C375.244,273.027 348.576,290.028 325.733,311.119 L323.019,308.406 C346.256,286.926 373.397,269.618 403.253,257.690 L404.573,261.295 ZM397.669,242.435 C366.143,254.918 336.984,273.267 311.539,296.924 L308.824,294.208 C334.673,270.153 364.305,251.502 396.349,238.828 L397.669,242.435 ZM390.808,223.691 C356.594,237.167 324.971,257.083 297.430,282.813 L294.715,280.099 C322.659,253.968 354.757,233.751 389.488,220.085 L390.808,223.691 ZM383.947,204.948 C347.045,219.415 312.957,240.897 283.322,268.704 L280.607,265.989 C310.645,237.782 345.208,216.000 382.627,201.341 L383.947,204.948 ZM377.086,186.205 C337.496,201.664 300.942,224.710 269.214,254.595 L266.498,251.880 C298.629,221.595 335.659,198.247 375.766,182.598 L377.086,186.205 ZM370.225,167.461 C327.947,183.909 288.926,208.522 255.105,240.485 L252.390,237.770 C286.613,205.406 326.109,180.493 368.904,163.854 L370.225,167.461 ZM363.364,148.718 C318.397,166.156 276.909,192.333 240.996,226.375 L238.282,223.660 C274.596,189.218 316.560,162.740 362.044,145.111 L363.364,148.718 ZM356.502,129.974 C308.847,148.401 264.891,176.143 226.888,212.266 L224.173,209.550 C262.578,173.028 307.009,144.984 355.182,126.367 L356.502,129.974 ZM349.641,111.230 C299.297,130.645 252.874,159.953 212.780,198.156 L210.067,195.443 C250.563,156.840 297.460,127.230 348.322,107.625 L349.641,111.230 ZM342.783,92.495 C289.751,112.898 240.864,143.772 198.680,184.056 L195.968,181.342 C238.553,140.659 287.913,109.482 341.464,88.891 L342.783,92.495 ZM200.988,209.880 C170.492,241.294 145.520,276.681 126.572,314.873 L123.089,313.257 C142.226,274.663 167.456,238.904 198.275,207.167 L200.988,209.880 ZM186.889,195.780 C154.715,228.877 128.400,266.191 108.473,306.474 L104.990,304.858 C125.106,264.173 151.679,226.487 184.176,193.066 L186.889,195.780 ZM172.789,181.679 C138.937,216.459 111.279,255.701 90.374,298.074 L87.003,296.510 C108.302,253.231 136.158,213.804 170.074,178.963 L172.789,181.679 ZM158.687,167.576 C123.427,203.765 94.485,244.738 72.388,289.728 L68.906,288.112 C91.194,242.713 120.393,201.372 155.974,164.863 L158.687,167.576 ZM79.915,311.553 L83.283,313.116 C58.934,367.439 45.411,426.473 43.848,487.537 L40.007,487.537 C41.470,429.706 53.548,373.593 75.974,320.568 C77.253,317.543 78.575,314.543 79.915,311.553 ZM61.819,303.155 L65.301,304.770 C63.883,307.931 62.487,311.104 61.135,314.301 C37.871,369.308 25.361,427.530 23.895,487.537 L20.058,487.537 C21.525,427.014 34.135,368.289 57.601,312.806 C58.970,309.568 60.383,306.355 61.819,303.155 ZM19.940,504.166 L23.778,504.166 C24.265,555.430 32.784,605.439 49.154,653.310 L45.550,654.629 C29.026,606.335 20.428,555.884 19.940,504.166 ZM43.746,504.166 C44.236,553.303 52.448,601.201 67.816,646.476 L64.293,647.767 C48.569,601.667 40.395,553.518 39.909,504.166 L43.746,504.166 ZM57.601,686.194 C55.368,680.914 53.238,675.604 51.202,670.268 L54.806,668.948 C56.820,674.226 58.927,679.478 61.135,684.699 C83.604,737.827 115.168,785.877 155.038,827.686 L152.325,830.399 C112.103,788.238 80.264,739.779 57.601,686.194 ZM75.974,678.431 C73.867,673.450 71.886,668.433 69.962,663.399 L73.439,662.126 C94.682,717.856 126.947,769.248 169.143,813.580 L166.431,816.293 C128.038,775.967 97.632,729.641 75.974,678.431 ZM88.568,656.587 L92.173,655.268 C112.429,708.308 143.136,757.228 183.251,799.470 L180.536,802.185 C140.021,759.541 109.015,710.146 88.568,656.587 ZM107.302,649.729 L110.907,648.409 C130.176,698.760 159.325,745.209 197.360,785.360 L194.645,788.075 C156.210,747.522 126.761,700.597 107.302,649.729 ZM126.036,642.870 L129.641,641.550 C147.923,689.211 175.514,733.190 211.469,771.250 L208.754,773.965 C172.399,735.503 144.508,691.049 126.036,642.870 ZM144.770,636.011 L148.374,634.691 C165.668,679.664 191.701,721.173 225.577,757.141 L222.862,759.857 C188.586,723.486 162.254,681.501 144.770,636.011 ZM163.503,629.153 L167.108,627.833 C183.414,670.116 207.888,709.156 239.685,743.032 L236.971,745.747 C204.773,711.468 179.999,671.953 163.503,629.153 ZM182.244,622.291 L185.851,620.970 C201.168,660.565 224.074,697.139 253.794,728.921 L251.079,731.637 C220.959,699.452 197.752,662.403 182.244,622.291 ZM200.986,615.429 L204.592,614.109 C218.920,651.015 240.258,685.124 267.902,714.812 L265.187,717.527 C237.144,687.436 215.503,652.853 200.986,615.429 ZM219.728,608.567 L223.334,607.247 C236.671,641.465 256.441,673.110 282.011,700.702 L279.296,703.417 C253.328,675.421 233.255,643.303 219.728,608.567 ZM238.469,601.706 L242.076,600.386 C254.421,631.915 272.623,661.097 296.120,686.592 L293.404,689.308 C269.509,663.409 251.005,633.753 238.469,601.706 ZM257.323,594.804 L260.927,593.484 C272.519,622.811 289.374,649.502 310.313,672.398 L307.599,675.112 C286.272,651.822 269.110,624.658 257.323,594.804 ZM276.059,587.944 L279.664,586.624 C290.236,613.211 305.494,637.444 324.417,658.292 L321.701,661.009 C302.390,639.766 286.827,615.058 276.059,587.944 ZM294.795,581.084 L298.401,579.764 C307.951,603.611 321.624,625.375 338.535,644.173 L335.818,646.891 C318.520,627.697 304.543,605.458 294.795,581.084 ZM313.533,574.224 L317.139,572.904 C325.664,594.012 337.751,613.310 352.652,630.055 L349.936,632.772 C334.648,615.631 322.256,595.859 313.533,574.224 ZM332.270,567.364 L335.876,566.044 C343.373,584.415 353.873,601.250 366.770,615.936 L364.053,618.653 C350.771,603.570 339.966,586.262 332.270,567.364 ZM351.007,560.504 L354.612,559.185 C361.076,574.820 369.993,589.194 380.892,601.813 L378.171,604.534 C366.888,591.517 357.670,576.667 351.007,560.504 ZM369.745,553.644 L373.350,552.324 C378.773,565.229 386.124,577.128 395.033,587.670 L392.312,590.392 C383.021,579.448 375.369,567.074 369.745,553.644 ZM388.490,546.781 L392.100,545.459 C396.471,555.636 402.245,565.073 409.181,573.522 L406.454,576.249 C399.139,567.395 393.064,557.482 388.490,546.781 ZM405.743,462.763 L409.229,464.380 C406.367,471.712 404.378,479.470 403.379,487.537 L399.512,487.537 C400.540,478.897 402.664,470.595 405.743,462.763 ZM398.896,504.166 L402.733,504.166 C403.039,510.578 403.979,516.824 405.477,522.854 L401.847,524.183 C400.216,517.733 399.211,511.039 398.896,504.166 ZM412.596,421.506 C407.223,427.488 402.455,434.025 398.394,441.020 L394.897,439.397 C399.164,431.998 404.196,425.095 409.879,418.789 L412.596,421.506 ZM387.609,454.347 L391.093,455.964 C387.092,465.891 384.412,476.487 383.283,487.537 L379.430,487.537 C380.579,475.913 383.387,464.772 387.609,454.347 ZM378.936,504.166 L382.776,504.166 C383.124,512.976 384.450,521.537 386.652,529.746 L383.036,531.070 C380.695,522.444 379.291,513.438 378.936,504.166 ZM398.483,407.392 C391.495,415.050 385.370,423.505 380.249,432.600 L376.759,430.980 C382.082,421.481 388.470,412.657 395.769,404.678 L398.483,407.392 ZM369.503,445.944 L372.988,447.561 C367.834,460.070 364.486,473.503 363.264,487.537 L359.412,487.537 C360.648,472.928 364.127,458.949 369.503,445.944 ZM358.983,504.166 L362.823,504.166 C363.201,515.377 364.928,526.251 367.857,536.627 L364.241,537.951 C361.169,527.159 359.366,515.839 358.983,504.166 ZM384.381,393.289 C375.772,402.615 368.277,412.982 362.114,424.183 L358.624,422.563 C364.987,410.957 372.746,400.221 381.668,390.575 L384.381,393.289 ZM370.280,379.186 C360.044,390.174 351.184,402.458 343.989,415.772 L340.504,414.155 C347.897,400.434 357.017,387.779 367.566,376.473 L370.280,379.186 ZM351.397,437.542 L354.881,439.158 C348.565,454.243 344.537,470.513 343.246,487.537 L339.402,487.537 C340.704,469.938 344.857,453.120 351.397,437.542 ZM339.029,504.166 L342.869,504.166 C343.269,517.780 345.416,530.961 349.089,543.498 L345.479,544.820 C341.662,531.867 339.433,518.242 339.029,504.166 ZM356.178,365.084 C344.313,377.729 334.100,391.939 325.881,407.368 L322.396,405.751 C330.812,389.914 341.286,375.335 353.465,362.370 L356.178,365.084 ZM333.295,429.141 L336.777,430.757 C329.293,448.409 324.612,467.523 323.267,487.537 L319.423,487.537 C320.777,466.948 325.586,447.287 333.295,429.141 ZM319.076,504.166 L322.916,504.166 C323.333,520.184 325.903,535.673 330.329,550.367 L326.719,551.689 C322.147,536.581 319.496,520.647 319.076,504.166 ZM342.077,350.981 C328.579,365.282 317.009,381.416 307.772,398.964 L304.288,397.347 C313.720,379.391 325.552,362.887 339.363,348.268 L342.077,350.981 ZM327.976,336.879 C312.844,352.833 299.915,370.892 289.664,390.561 L286.180,388.944 C296.625,368.866 309.816,350.437 325.262,334.165 L327.976,336.879 ZM313.874,322.776 C297.108,340.382 282.818,360.366 271.556,382.157 L268.072,380.540 C279.528,358.340 294.079,337.986 311.161,320.062 L313.874,322.776 ZM299.688,308.588 C280.923,328.209 265.381,350.126 253.309,373.689 L249.823,372.071 C262.085,348.106 277.887,325.819 296.974,305.875 L299.688,308.588 ZM285.588,294.487 C265.149,315.794 248.254,339.631 235.196,365.283 L231.711,363.666 C244.958,337.612 262.114,313.405 282.875,291.774 L285.588,294.487 ZM271.488,280.387 C249.375,303.378 231.126,329.137 217.083,356.878 L213.597,355.260 C227.829,327.117 246.339,300.989 268.775,277.673 L271.488,280.387 ZM257.389,266.285 C233.599,290.963 213.996,318.642 198.970,348.472 L195.487,346.856 C210.702,316.623 230.563,288.573 254.675,263.572 L257.389,266.285 ZM243.288,252.184 C217.823,278.546 196.878,308.152 180.870,340.072 L177.387,338.456 C193.583,306.134 214.787,276.156 240.575,249.471 L243.288,252.184 ZM229.188,238.083 C202.046,266.129 179.759,297.662 162.771,331.673 L159.288,330.056 C176.465,295.643 199.011,263.740 226.475,235.370 L229.188,238.083 ZM215.089,223.982 C186.270,253.712 162.641,287.172 144.672,323.273 L141.189,321.657 C159.346,285.153 183.233,251.323 212.375,221.269 L215.089,223.982 ZM155.668,346.708 C136.133,390.632 125.188,438.271 123.659,487.537 L119.819,487.537 C121.350,437.704 132.420,389.517 152.186,345.092 L155.668,346.708 ZM137.572,338.310 C116.835,384.834 105.245,435.322 103.707,487.537 L99.867,487.537 C101.408,434.754 113.121,383.719 134.089,336.694 L137.572,338.310 ZM119.475,329.912 C97.534,379.036 85.301,432.373 83.753,487.537 L79.914,487.537 C81.463,431.805 93.820,377.921 115.992,328.296 L119.475,329.912 ZM101.379,321.514 C78.235,373.238 65.356,429.423 63.801,487.537 L59.962,487.537 C61.518,428.856 74.521,372.122 97.897,319.898 L101.379,321.514 ZM59.849,504.166 L63.686,504.166 C64.174,550.927 71.973,596.511 86.553,639.617 L82.948,640.936 C68.216,597.413 60.337,551.384 59.849,504.166 ZM79.789,504.166 L83.626,504.166 C84.111,548.550 91.497,591.822 105.290,632.757 L101.685,634.077 C87.740,592.724 80.275,549.007 79.789,504.166 ZM99.730,504.166 L103.567,504.166 C104.049,546.173 111.021,587.133 124.028,625.897 L120.422,627.217 C107.264,588.035 100.213,546.630 99.730,504.166 ZM119.670,504.166 L123.507,504.166 C123.986,543.796 130.543,582.444 142.764,619.037 L139.159,620.357 C126.787,583.346 120.150,544.253 119.670,504.166 ZM139.610,504.166 L143.447,504.166 C143.923,541.419 150.065,577.756 161.501,612.177 L157.895,613.497 C146.308,578.658 140.086,541.876 139.610,504.166 ZM159.551,504.166 L163.388,504.166 C163.860,539.042 169.587,573.067 180.239,605.317 L176.633,606.637 C165.831,573.970 160.024,539.500 159.551,504.166 ZM179.491,504.166 L183.328,504.166 C183.796,536.665 189.120,568.375 198.988,598.452 L195.380,599.774 C185.361,569.278 179.959,537.123 179.491,504.166 ZM139.771,487.537 C141.292,440.653 151.718,395.314 170.281,353.490 L173.764,355.106 C155.431,396.430 145.129,441.220 143.611,487.537 L139.771,487.537 ZM191.867,363.508 C174.736,402.230 165.071,444.169 163.564,487.537 L159.725,487.537 C161.234,443.602 171.022,401.114 188.383,361.890 L191.867,363.508 ZM179.677,487.537 C181.173,446.551 190.326,406.914 206.486,370.292 L209.970,371.909 C194.041,408.031 185.009,447.119 183.516,487.537 L179.677,487.537 ZM199.431,504.166 L203.268,504.166 C203.730,534.289 208.653,563.683 217.739,591.588 L214.131,592.908 C204.894,564.586 199.894,534.746 199.431,504.166 ZM199.629,487.537 C201.110,449.500 209.631,412.715 224.591,378.694 L228.074,380.311 C213.345,413.831 204.946,450.068 203.468,487.537 L199.629,487.537 ZM219.371,504.166 L223.208,504.166 C223.665,531.913 228.184,558.991 236.490,584.723 L232.882,586.044 C224.426,559.894 219.829,532.370 219.371,504.166 ZM219.581,487.537 C221.045,452.448 228.934,418.514 242.694,387.095 L246.178,388.712 C232.648,419.631 224.881,453.016 223.420,487.537 L219.581,487.537 ZM239.315,504.166 L243.152,504.166 C243.612,529.804 247.852,554.532 255.340,577.821 L251.734,579.141 C244.098,555.439 239.776,530.266 239.315,504.166 ZM239.541,487.537 C241.022,454.974 248.517,423.956 260.935,395.560 L264.416,397.176 C252.225,425.079 244.857,455.550 243.381,487.537 L239.541,487.537 ZM259.255,504.166 L263.092,504.166 C263.544,527.398 267.360,549.818 274.077,570.961 L270.471,572.281 C263.606,550.726 259.708,527.861 259.255,504.166 ZM259.494,487.537 C260.951,457.967 267.787,429.792 279.025,403.955 L282.506,405.571 C271.495,430.915 264.785,458.543 263.334,487.537 L259.494,487.537 ZM279.195,504.166 L283.032,504.166 C283.474,524.993 286.865,545.106 292.814,564.102 L289.209,565.422 C283.112,546.013 279.639,525.455 279.195,504.166 ZM279.463,487.537 C280.892,460.961 287.055,435.626 297.114,412.350 L300.596,413.966 C290.763,436.748 284.731,461.537 283.308,487.537 L279.463,487.537 ZM315.206,420.746 L318.687,422.361 C310.030,442.579 304.676,464.531 303.288,487.537 L299.444,487.537 C300.839,463.955 306.323,441.458 315.206,420.746 ZM299.136,504.166 L302.973,504.166 C303.404,522.588 306.384,540.390 311.569,557.235 L307.958,558.557 C302.627,541.298 299.569,523.051 299.136,504.166 ZM407.265,539.907 L410.877,538.585 C414.177,546.040 418.390,552.998 423.374,559.327 L420.643,562.058 C415.286,555.318 410.773,547.885 407.265,539.907 ZM418.863,504.166 L422.710,504.166 C422.952,508.184 423.506,512.117 424.343,515.947 L420.713,517.276 C419.754,513.020 419.120,508.644 418.863,504.166 ZM413.076,447.834 C416.263,442.523 419.931,437.539 424.009,432.920 L426.727,435.639 C422.956,439.930 419.543,444.543 416.569,449.455 L413.076,447.834 ZM419.610,487.537 C420.455,481.868 421.896,476.393 423.858,471.169 L427.344,472.787 C425.592,477.505 424.290,482.438 423.490,487.537 L419.610,487.537 ZM438.135,447.048 L440.853,449.766 C438.664,452.343 436.647,455.067 434.808,457.919 L431.297,456.289 C433.359,453.045 435.645,449.957 438.135,447.048 ZM426.036,533.035 L429.648,531.713 C431.846,536.460 434.504,540.951 437.582,545.118 L434.835,547.865 C431.395,543.277 428.450,538.302 426.036,533.035 ZM166.741,839.498 C203.639,875.635 245.532,905.187 291.614,927.574 L289.998,931.056 C243.508,908.478 201.246,878.668 164.028,842.212 L166.741,839.498 ZM693.760,60.877 L692.145,64.359 C689.664,63.259 687.187,62.155 684.684,61.097 C628.501,37.332 568.965,24.797 507.600,23.783 L507.600,19.945 C569.482,20.959 629.520,33.597 686.178,57.562 C688.721,58.638 691.239,59.760 693.760,60.877 ZM685.363,78.974 L683.812,82.316 C628.917,58.038 569.257,44.816 507.600,43.748 L507.600,39.912 C566.789,40.924 624.218,53.012 678.417,75.937 C680.747,76.923 683.053,77.953 685.363,78.974 ZM675.411,100.422 C623.115,77.346 566.308,64.754 507.600,63.691 L507.600,59.853 C566.876,60.917 624.231,73.631 677.028,96.938 L675.411,100.422 ZM667.011,118.527 C617.314,96.654 563.360,84.691 507.600,83.632 L507.600,79.795 C563.927,80.854 618.430,92.939 668.627,115.043 L667.011,118.527 ZM658.609,136.633 C611.512,115.962 560.410,104.627 507.600,103.575 L507.600,99.737 C560.978,100.791 612.629,112.247 660.226,133.149 L658.609,136.633 ZM650.208,154.739 C605.711,135.270 557.462,124.564 507.600,123.517 L507.600,119.679 C558.029,120.728 606.827,131.555 651.825,151.256 L650.208,154.739 ZM641.807,172.844 C599.911,154.576 554.513,144.498 507.600,143.459 L507.600,139.621 C555.081,140.662 601.027,150.861 643.424,169.361 L641.807,172.844 ZM633.406,190.951 C594.110,173.882 551.565,164.434 507.600,163.401 L507.600,159.563 C552.132,160.597 595.226,170.168 635.023,187.466 L633.406,190.951 ZM625.006,209.055 C588.311,193.187 548.616,184.371 507.600,183.347 L507.600,179.507 C549.184,180.533 589.427,189.472 626.622,205.571 L625.006,209.055 ZM616.605,227.161 C582.512,212.491 545.667,204.317 507.600,203.301 L507.600,199.462 C546.235,200.479 583.628,208.777 618.221,223.677 L616.605,227.161 ZM608.203,245.267 C576.714,231.795 542.718,224.260 507.600,223.256 L507.600,219.417 C543.285,220.422 577.830,228.080 609.820,241.783 L608.203,245.267 ZM599.748,263.489 C571.287,251.352 540.201,244.228 507.600,243.211 L507.600,239.371 C540.777,240.391 572.410,247.644 601.364,260.008 L599.748,263.489 ZM591.353,281.583 C565.453,270.624 537.206,264.168 507.600,263.166 L507.600,259.326 C537.782,260.331 566.576,266.914 592.969,278.100 L591.353,281.583 ZM582.951,299.691 C559.613,289.906 534.212,284.105 507.600,283.121 L507.600,279.281 C534.788,280.269 560.737,286.196 584.568,296.206 L582.951,299.691 ZM574.549,317.798 C553.776,309.185 531.219,304.039 507.600,303.076 L507.600,299.236 C531.795,300.203 554.899,305.476 576.166,314.314 L574.549,317.798 ZM566.147,335.906 C547.940,328.460 528.227,323.967 507.600,323.031 L507.600,319.191 C528.803,320.133 549.063,324.751 567.764,332.422 L566.147,335.906 ZM557.745,354.013 C542.109,347.729 525.237,343.890 507.600,342.987 L507.600,339.147 C525.812,340.056 543.230,344.022 559.362,350.529 L557.745,354.013 ZM549.341,372.126 C536.281,366.997 522.246,363.829 507.600,362.969 L507.600,359.123 C522.821,359.992 537.403,363.287 550.960,368.637 L549.341,372.126 ZM540.926,390.260 C530.450,386.273 519.258,383.752 507.600,382.950 L507.600,379.105 C519.833,379.920 531.571,382.565 542.546,386.771 L540.926,390.260 ZM532.508,408.403 C524.630,405.540 516.273,403.693 507.600,402.970 L507.600,399.123 C516.846,399.863 525.752,401.827 534.132,404.905 L532.508,408.403 ZM524.068,426.594 C518.806,424.816 513.299,423.577 507.600,422.977 L507.600,419.117 C513.871,419.744 519.923,421.111 525.692,423.094 L524.068,426.594 ZM521.149,577.318 C516.768,578.539 512.245,579.417 507.600,579.882 L507.600,576.022 C511.786,575.582 515.866,574.792 519.827,573.705 L521.149,577.318 ZM528.021,596.092 C521.465,598.031 514.634,599.313 507.600,599.875 L507.600,596.028 C514.174,595.481 520.560,594.279 526.699,592.479 L528.021,596.092 ZM534.896,614.872 C526.174,617.554 517.033,619.266 507.600,619.895 L507.600,616.050 C516.572,615.433 525.268,613.799 533.574,611.261 L534.896,614.872 ZM541.759,633.622 C530.880,637.057 519.434,639.200 507.600,639.876 L507.600,636.031 C518.971,635.364 529.975,633.306 540.439,630.016 L541.759,633.622 ZM548.618,652.361 C535.587,656.559 521.837,659.142 507.600,659.853 L507.600,656.012 C521.374,655.307 534.680,652.806 547.299,648.755 L548.618,652.361 ZM555.478,671.099 C540.297,676.065 524.239,679.069 507.600,679.807 L507.600,675.967 C523.777,675.233 539.390,672.311 554.158,667.493 L555.478,671.099 ZM562.338,689.839 C545.010,695.575 526.643,699.002 507.600,699.763 L507.600,695.923 C526.180,695.166 544.103,691.821 561.018,686.234 L562.338,689.839 ZM569.197,708.578 C549.724,715.088 529.048,718.939 507.600,719.718 L507.600,715.878 C528.585,715.102 548.816,711.333 567.877,704.972 L569.197,708.578 ZM576.057,727.317 C554.439,734.602 531.453,738.878 507.600,739.673 L507.600,735.833 C530.990,735.041 553.531,730.847 574.737,723.711 L576.057,727.317 ZM582.916,746.056 C559.154,754.118 533.859,758.822 507.600,759.629 L507.600,755.789 C533.396,754.984 558.247,750.363 581.596,742.451 L582.916,746.056 ZM589.809,764.887 C563.598,773.781 535.960,778.783 507.600,779.583 L507.600,775.743 C535.503,774.945 562.696,770.024 588.489,761.280 L589.809,764.887 ZM596.668,783.624 C568.286,793.305 538.337,798.728 507.600,799.537 L507.600,795.697 C537.879,794.890 567.384,789.549 595.348,780.019 L596.668,783.624 ZM603.528,802.364 C572.974,812.832 540.714,818.675 507.600,819.492 L507.600,815.653 C540.256,814.837 572.072,809.074 602.208,798.758 L603.528,802.364 ZM610.387,821.102 C577.663,832.357 543.090,838.612 507.600,839.436 L507.600,835.599 C542.632,834.776 576.761,828.599 609.067,817.496 L610.387,821.102 ZM617.246,839.841 C582.352,851.883 545.466,858.548 507.600,859.378 L507.600,855.540 C545.009,854.711 581.450,848.125 615.926,836.234 L617.246,839.841 ZM624.106,858.580 C587.042,871.410 547.842,878.484 507.600,879.321 L507.600,875.483 C547.385,874.648 586.140,867.653 622.786,854.975 L624.106,858.580 ZM630.965,877.318 C591.731,890.937 550.219,898.421 507.600,899.262 L507.600,895.424 C549.761,894.584 590.829,887.179 629.645,873.713 L630.965,877.318 ZM637.824,896.057 C596.421,910.464 552.595,918.357 507.600,919.204 L507.600,915.367 C552.138,914.521 595.519,906.707 636.504,892.451 L637.824,896.057 ZM644.684,914.795 C601.111,929.993 554.972,938.296 507.600,939.147 L507.600,935.309 C554.515,934.460 600.209,926.235 643.364,911.190 L644.684,914.795 ZM651.504,933.427 C605.337,949.627 557.088,958.240 507.600,959.088 L507.600,955.251 C556.891,954.398 604.899,945.763 650.223,929.928 L651.504,933.427 ZM658.373,952.194 C610.013,969.195 559.454,978.204 507.600,979.054 L507.600,975.216 C559.000,974.367 609.117,965.436 657.054,948.590 L658.373,952.194 ZM665.230,970.926 C614.678,988.729 561.818,998.147 507.600,999.000 L507.600,995.162 C561.363,994.309 613.782,984.971 663.911,967.323 L665.230,970.926 ZM820.610,828.367 C779.278,868.754 731.479,900.617 678.417,923.061 C674.661,924.650 670.887,926.179 667.101,927.664 L665.819,924.161 C721.947,902.192 773.563,868.965 817.896,825.652 L820.610,828.367 ZM831.996,839.754 L834.710,842.467 C791.545,884.685 741.614,917.987 686.178,941.437 C682.123,943.152 678.049,944.803 673.960,946.402 L672.641,942.799 C676.671,941.222 680.687,939.593 684.684,937.903 C739.662,914.646 789.183,881.621 831.996,839.754 ZM846.096,853.855 L848.810,856.570 C803.814,900.618 751.750,935.357 693.939,959.812 C689.585,961.654 685.210,963.424 680.818,965.137 L679.499,961.534 C683.832,959.843 688.149,958.095 692.445,956.278 C749.798,932.017 801.452,897.553 846.096,853.855 ZM950.104,715.389 C927.294,762.996 897.247,806.393 860.520,844.764 L857.806,842.049 C894.214,803.999 924.004,760.972 946.624,713.774 L950.104,715.389 ZM941.400,686.194 C940.595,688.097 939.748,689.976 938.920,691.866 L935.438,690.250 C936.248,688.400 937.077,686.561 937.865,684.699 C962.072,627.463 974.628,566.750 975.223,504.166 L979.060,504.166 C978.465,567.266 965.807,628.483 941.400,686.194 ZM978.943,487.537 L975.105,487.537 C973.889,437.747 965.067,389.188 948.808,342.672 L952.413,341.352 C968.825,388.291 977.725,437.294 978.943,487.537 ZM955.152,487.537 C953.932,439.862 945.405,393.430 930.147,349.504 L933.650,348.221 C949.263,392.967 957.782,439.659 958.994,487.537 L955.152,487.537 ZM941.400,312.806 C943.217,317.102 944.961,321.420 946.648,325.754 L943.043,327.074 C941.378,322.798 939.657,318.539 937.865,314.301 C914.690,259.501 881.811,210.124 840.147,167.406 L842.860,164.692 C884.875,207.762 918.030,257.549 941.400,312.806 ZM923.026,320.568 C924.717,324.565 926.333,328.584 927.906,332.616 L924.416,333.894 C902.523,277.661 869.336,225.940 826.045,181.508 L828.760,178.793 C868.945,220.031 900.662,267.685 923.026,320.568 ZM905.674,340.756 C884.768,287.211 853.153,237.954 811.945,195.609 L814.658,192.896 C856.267,235.642 888.184,285.374 909.280,339.435 L905.674,340.756 ZM816.965,167.073 L814.250,169.788 C779.678,136.741 740.786,109.765 698.880,89.348 L700.450,85.965 C743.258,106.774 782.337,133.962 816.965,167.073 ZM802.862,181.176 L800.149,183.890 C767.262,152.518 730.295,126.888 690.481,107.449 L692.098,103.966 C732.314,123.593 769.652,149.482 802.862,181.176 ZM788.762,195.279 L786.047,197.993 C754.846,168.297 719.805,144.010 682.083,125.550 L683.699,122.067 C721.824,140.716 757.236,165.259 788.762,195.279 ZM774.653,209.388 L771.938,212.104 C742.423,184.083 709.315,161.132 673.684,143.651 L675.300,140.167 C711.334,157.837 744.814,181.045 774.653,209.388 ZM760.544,223.498 L757.829,226.213 C730.001,199.867 698.825,178.254 665.285,161.751 L666.901,158.269 C700.843,174.960 732.391,196.830 760.544,223.498 ZM746.436,237.608 L743.721,240.323 C717.580,215.650 688.335,195.374 656.886,179.852 L658.502,176.370 C690.353,192.080 719.970,212.613 746.436,237.608 ZM732.327,251.717 L729.612,254.432 C705.160,231.433 677.846,212.494 648.487,197.953 L650.104,194.470 C679.864,209.200 707.550,228.396 732.327,251.717 ZM718.219,265.827 L715.504,268.542 C692.741,247.214 667.357,229.613 640.089,216.054 L641.705,212.571 C669.375,226.319 695.131,244.177 718.219,265.827 ZM704.110,279.937 L701.396,282.652 C680.322,262.994 656.869,246.730 631.690,234.155 L633.306,230.672 C658.887,243.436 682.712,259.958 704.110,279.937 ZM690.002,294.047 L687.287,296.762 C667.905,278.773 646.381,263.847 623.291,252.256 L624.907,248.773 C648.399,260.553 670.294,275.737 690.002,294.047 ZM675.806,308.243 L673.093,310.957 C655.708,294.936 636.114,281.282 614.820,270.513 L616.435,267.031 C638.138,277.995 658.103,291.909 675.806,308.243 ZM661.705,322.346 L658.992,325.059 C643.266,310.667 625.596,298.367 606.425,288.606 L608.040,285.124 C627.620,295.080 645.660,307.640 661.705,322.346 ZM647.604,336.448 L644.887,339.165 C630.823,326.398 615.079,315.451 598.029,306.700 L599.645,303.217 C617.103,312.163 633.219,323.369 647.604,336.448 ZM633.486,350.567 L630.770,353.284 C618.372,342.139 604.556,332.545 589.626,324.810 L591.243,321.325 C606.581,329.256 620.767,339.110 633.486,350.567 ZM619.369,364.686 L616.652,367.402 C605.925,357.876 594.035,349.635 581.223,342.920 L582.840,339.435 C596.060,346.347 608.319,354.848 619.369,364.686 ZM605.251,378.804 L602.535,381.521 C593.485,373.607 583.519,366.718 572.820,361.029 L574.437,357.544 C585.542,363.431 595.878,370.580 605.251,378.804 ZM591.126,392.931 L588.405,395.652 C581.043,389.339 573.007,383.791 564.418,379.139 L566.035,375.654 C575.030,380.507 583.438,386.310 591.126,392.931 ZM576.984,407.074 L574.263,409.795 C568.604,405.070 562.492,400.871 556.005,397.270 L557.624,393.780 C564.516,397.585 570.996,402.045 576.984,407.074 ZM562.820,421.239 L560.089,423.970 C556.158,420.810 551.975,417.957 547.578,415.431 L549.198,411.938 C553.997,414.673 558.554,417.780 562.820,421.239 ZM548.629,435.432 L545.898,438.163 C543.736,436.523 541.488,434.991 539.156,433.582 L540.776,430.090 C543.503,431.718 546.122,433.504 548.629,435.432 ZM535.293,567.587 C540.539,564.818 545.422,561.458 549.866,557.600 L552.584,560.318 C547.737,564.556 542.383,568.222 536.622,571.217 L535.293,567.587 ZM542.198,586.448 C550.134,582.535 557.459,577.568 563.992,571.727 L566.710,574.445 C559.778,580.670 551.984,585.949 543.526,590.078 L542.198,586.448 ZM563.937,548.156 L561.203,545.421 C563.120,542.851 564.865,540.148 566.455,537.346 L569.948,538.966 C568.147,542.168 566.143,545.241 563.937,548.156 ZM560.709,446.867 C564.949,451.792 568.603,457.229 571.570,463.076 L567.941,464.405 C565.197,459.074 561.853,454.105 557.990,449.585 L560.709,446.867 ZM549.088,605.272 C559.736,600.259 569.512,593.690 578.114,585.850 L580.828,588.564 C571.829,596.790 561.583,603.667 550.412,608.888 L549.088,605.272 ZM555.968,624.066 C569.337,617.981 581.556,609.800 592.216,599.953 L594.929,602.666 C583.875,612.901 571.185,621.392 557.291,627.682 L555.968,624.066 ZM562.837,642.832 C578.933,635.691 593.608,625.916 606.317,614.055 L609.031,616.769 C595.928,629.017 580.780,639.099 564.159,646.443 L562.837,642.832 ZM569.705,661.593 C588.532,653.406 605.664,642.035 620.418,628.158 L623.131,630.871 C607.984,645.137 590.379,656.816 571.026,665.203 L569.705,661.593 ZM576.572,680.355 C598.134,671.130 617.723,658.158 634.520,642.260 L637.233,644.975 C620.044,661.260 599.982,674.541 577.894,683.965 L576.572,680.355 ZM583.437,699.109 C607.735,688.851 629.784,674.282 648.621,656.363 L651.334,659.077 C632.106,677.385 609.582,692.260 584.757,702.715 L583.437,699.109 ZM590.297,717.848 C617.332,706.562 641.844,690.404 662.719,670.462 L665.431,673.174 C644.164,693.505 619.179,709.970 591.617,721.454 L590.297,717.848 ZM597.156,736.587 C626.930,724.275 653.901,706.522 676.812,684.557 L679.524,687.269 C656.221,709.624 628.777,727.684 598.476,740.192 L597.156,736.587 ZM604.069,755.469 C636.009,742.421 665.459,723.315 690.996,698.741 L693.710,701.456 C667.770,726.430 637.846,745.837 605.389,759.077 L604.069,755.469 ZM610.930,774.212 C645.556,760.169 677.468,739.497 705.096,712.843 L707.809,715.556 C679.779,742.610 647.393,763.585 612.250,777.819 L610.930,774.212 ZM617.791,792.956 C655.104,777.919 689.479,755.679 719.196,726.944 L721.910,729.658 C691.790,758.793 656.941,781.335 619.111,796.563 L617.791,792.956 ZM624.652,811.700 C664.652,795.670 701.490,771.862 733.296,741.045 L736.009,743.758 C703.801,774.975 666.489,799.086 625.972,815.307 L624.652,811.700 ZM631.513,830.443 C674.200,813.421 713.501,788.044 747.396,755.146 L750.109,757.859 C715.813,791.158 676.038,816.837 632.833,834.050 L631.513,830.443 ZM638.374,849.187 C683.749,831.175 725.513,804.229 761.496,769.248 L764.209,771.961 C727.825,807.342 685.587,834.591 639.694,852.794 L638.374,849.187 ZM645.235,867.930 C693.298,848.928 737.525,820.412 775.595,783.348 L778.309,786.062 C739.837,823.526 695.136,852.344 646.555,871.537 L645.235,867.930 ZM652.096,886.673 C702.847,866.682 749.538,836.595 789.696,797.450 L792.409,800.163 C751.849,839.710 704.685,870.098 653.416,890.280 L652.096,886.673 ZM658.958,905.418 C712.397,884.437 761.550,852.781 803.796,811.551 L806.509,814.264 C763.862,855.895 714.235,887.854 660.278,909.024 L658.958,905.418 ZM801.391,785.629 C831.386,754.019 855.850,718.489 874.333,680.225 L877.816,681.841 C859.145,720.507 834.423,756.410 804.105,788.344 L801.391,785.629 ZM815.500,799.739 C847.171,766.443 872.973,728.980 892.432,688.625 L895.915,690.240 C876.268,731.000 850.208,768.833 818.214,802.454 L815.500,799.739 ZM829.604,813.845 C862.951,778.864 890.096,739.473 910.532,697.024 L913.923,698.598 C893.088,741.965 865.722,781.532 832.320,816.561 L829.604,813.845 ZM843.706,827.948 C878.452,791.569 906.901,750.457 928.533,705.378 L932.014,706.994 C910.191,752.480 881.484,793.961 846.419,830.661 L843.706,827.948 ZM959.092,504.166 C958.497,564.572 946.394,623.180 923.026,678.431 C922.312,680.121 921.558,681.789 920.824,683.469 L917.470,681.912 C941.658,626.518 954.635,566.332 955.255,504.166 L959.092,504.166 ZM902.849,675.126 L899.365,673.509 C922.351,620.716 934.696,563.382 935.314,504.166 L939.151,504.166 C938.533,563.950 926.066,621.832 902.849,675.126 ZM939.038,487.537 L935.199,487.537 C933.987,442.239 925.879,398.120 911.409,356.364 L915.014,355.044 C929.636,397.218 937.824,441.782 939.038,487.537 ZM919.086,487.537 L915.247,487.537 C914.043,444.616 906.354,402.809 892.672,363.224 L896.278,361.904 C910.111,401.906 917.881,444.159 919.086,487.537 ZM895.295,487.537 C894.100,446.993 886.830,407.498 873.936,370.084 L877.541,368.764 C890.587,406.596 897.937,446.536 899.134,487.537 L895.295,487.537 ZM890.539,346.297 L886.932,347.617 C867.015,296.762 836.970,249.967 797.846,209.710 L800.559,206.996 C840.084,247.655 870.431,294.924 890.539,346.297 ZM871.797,353.159 L868.190,354.479 C849.262,306.312 820.788,261.980 783.745,223.812 L786.459,221.098 C823.902,259.668 852.678,304.474 871.797,353.159 ZM853.054,360.020 L849.448,361.341 C831.509,315.862 804.606,273.993 769.646,237.913 L772.359,235.199 C807.719,271.682 834.924,314.024 853.054,360.020 ZM834.313,366.882 L830.707,368.202 C813.757,325.412 788.424,286.006 755.546,252.014 L758.259,249.301 C791.538,283.694 817.173,323.574 834.313,366.882 ZM815.571,373.743 L811.965,375.064 C796.006,334.961 772.243,298.017 741.446,266.115 L744.159,263.401 C775.357,295.706 799.422,333.123 815.571,373.743 ZM796.829,380.606 L793.222,381.926 C778.255,344.511 756.062,310.030 727.346,280.216 L730.059,277.502 C759.176,307.718 781.671,342.673 796.829,380.606 ZM778.087,387.467 L774.481,388.788 C760.507,354.060 739.882,322.040 713.246,294.317 L715.959,291.604 C742.995,319.729 763.922,352.222 778.087,387.467 ZM759.346,394.329 L755.739,395.649 C742.759,363.608 723.702,334.052 699.146,308.419 L701.859,305.705 C726.816,331.740 746.174,361.770 759.346,394.329 ZM740.469,401.240 L736.863,402.560 C724.620,372.686 706.911,345.609 684.962,322.603 L687.674,319.891 C710.012,343.288 728.028,370.838 740.469,401.240 ZM721.732,408.099 L718.126,409.420 C706.906,382.285 690.788,357.672 670.862,336.704 L673.576,333.991 C693.891,355.350 710.315,380.437 721.732,408.099 ZM702.995,414.959 L699.389,416.280 C689.196,391.883 674.665,369.736 656.761,350.806 L659.474,348.093 C677.767,367.414 692.604,390.036 702.995,414.959 ZM684.257,421.820 L680.652,423.140 C671.489,401.480 658.543,381.798 642.659,364.910 L645.373,362.196 C661.645,379.477 674.895,399.633 684.257,421.820 ZM665.505,428.685 L661.895,430.007 C653.767,411.082 642.423,393.856 628.558,379.012 L631.271,376.299 C645.525,391.537 657.177,409.235 665.505,428.685 ZM646.746,435.553 L643.136,436.875 C636.050,420.683 626.307,405.912 614.457,393.114 L617.170,390.401 C629.408,403.593 639.459,418.836 646.746,435.553 ZM627.986,442.421 L624.376,443.743 C618.342,430.279 610.194,417.963 600.355,407.217 L603.069,404.503 C613.294,415.645 621.748,428.434 627.986,442.421 ZM609.211,449.295 L605.595,450.619 C600.628,439.878 594.080,430.014 586.246,421.328 L588.963,418.611 C597.182,427.694 604.037,438.031 609.211,449.295 ZM592.687,473.053 L596.299,471.731 C597.769,476.847 598.844,482.125 599.488,487.537 L595.621,487.537 C595.008,482.584 594.021,477.748 592.687,473.053 ZM594.761,532.150 L591.262,530.526 C594.089,522.183 595.830,513.345 596.267,504.166 L600.104,504.166 C599.657,513.919 597.801,523.306 594.761,532.150 ZM589.587,573.808 C594.595,567.746 598.998,561.169 602.717,554.174 L606.202,555.791 C602.283,563.191 597.621,570.138 592.309,576.529 L589.587,573.808 ZM611.476,466.174 L615.086,464.853 C617.277,472.150 618.799,479.734 619.570,487.537 L615.717,487.537 C614.967,480.194 613.526,473.054 611.476,466.174 ZM612.954,540.593 L609.458,538.970 C613.397,528.028 615.744,516.333 616.224,504.166 L620.064,504.166 C619.577,516.908 617.110,529.151 612.954,540.593 ZM603.729,587.951 C610.326,580.188 616.073,571.683 620.825,562.578 L624.310,564.195 C619.360,573.706 613.355,582.583 606.450,590.672 L603.729,587.951 ZM630.236,459.306 L633.846,457.984 C636.777,467.450 638.725,477.341 639.588,487.537 L635.736,487.537 C634.889,477.802 633.023,468.355 630.236,459.306 ZM631.095,549.011 L627.606,547.392 C632.679,533.863 635.666,519.324 636.177,504.166 L640.017,504.166 C639.501,519.899 636.389,534.985 631.095,549.011 ZM617.869,602.092 C626.069,592.641 633.159,582.202 638.934,570.981 L642.418,572.598 C636.447,584.227 629.096,595.035 620.586,604.809 L617.869,602.092 ZM648.985,452.441 L652.591,451.121 C656.272,462.748 658.666,474.942 659.598,487.537 L655.754,487.537 C654.833,475.404 652.522,463.653 648.985,452.441 ZM649.228,557.426 L645.738,555.807 C651.961,539.698 655.598,522.316 656.131,504.166 L659.971,504.166 C659.434,522.892 655.672,540.823 649.228,557.426 ZM631.986,616.210 C641.799,605.083 650.239,592.719 657.030,579.379 L660.511,580.995 C653.525,594.743 644.826,607.478 634.703,618.927 L631.986,616.210 ZM646.104,630.329 C657.535,617.532 667.319,603.237 675.121,587.775 L678.603,589.391 C670.606,605.261 660.563,619.928 648.821,633.046 L646.104,630.329 ZM667.722,445.581 L671.328,444.261 C675.768,458.044 678.592,472.543 679.577,487.537 L675.733,487.537 C674.756,473.004 672.016,458.949 667.722,445.581 ZM667.354,565.839 L663.870,564.222 C671.251,545.540 675.533,525.309 676.084,504.166 L679.924,504.166 C679.370,525.886 674.959,546.662 667.354,565.839 ZM660.222,644.448 C673.275,629.985 684.403,613.756 693.213,596.171 L696.694,597.787 C687.691,615.781 676.305,632.382 662.938,647.165 L660.222,644.448 ZM686.460,438.722 L690.065,437.401 C695.269,453.336 698.527,470.140 699.556,487.537 L695.712,487.537 C694.690,470.603 691.517,454.243 686.460,438.722 ZM685.460,574.241 L681.976,572.624 C690.521,551.374 695.462,528.303 696.027,504.166 L699.864,504.166 C699.297,528.879 694.229,552.497 685.460,574.241 ZM674.336,658.563 C689.016,642.440 701.489,624.277 711.304,604.567 L714.786,606.182 C704.777,626.301 692.043,644.834 677.050,661.277 L674.336,658.563 ZM688.437,672.666 C704.746,654.883 718.577,634.798 729.396,612.962 L732.877,614.578 C721.865,636.822 707.773,657.278 691.151,675.380 L688.437,672.666 ZM702.631,686.861 C720.918,667.070 736.007,645.050 747.638,621.429 L751.121,623.045 C739.301,647.069 723.954,669.460 705.346,689.577 L702.631,686.861 ZM716.740,700.971 C736.695,679.488 753.125,655.540 765.737,629.828 L769.220,631.444 C756.419,657.559 739.731,681.878 719.454,703.686 L716.740,700.971 ZM730.848,715.081 C752.474,691.908 770.244,666.031 783.836,638.227 L787.319,639.844 C773.538,668.050 755.511,694.298 733.563,717.796 L730.848,715.081 ZM744.957,729.190 C768.255,704.329 787.365,676.522 801.936,646.627 L805.419,648.243 C790.659,678.541 771.292,706.719 747.671,731.905 L744.957,729.190 ZM759.065,743.300 C784.037,716.750 804.485,687.013 820.035,655.026 L823.518,656.643 C807.780,689.032 787.074,719.141 761.780,746.015 L759.065,743.300 ZM773.174,757.410 C799.819,729.172 821.606,697.505 838.134,663.426 L841.617,665.042 C824.901,699.523 802.856,731.563 775.889,760.125 L773.174,757.410 ZM787.282,771.519 C815.602,741.595 838.728,707.996 856.234,671.825 L859.717,673.441 C842.023,710.015 818.640,743.986 789.998,774.235 L787.282,771.519 ZM879.181,487.537 L875.341,487.537 C874.157,449.370 867.306,412.187 855.198,376.944 L858.804,375.624 C871.063,411.284 877.994,448.913 879.181,487.537 ZM859.229,487.537 L855.389,487.537 C854.216,451.747 847.783,416.875 836.461,383.804 L840.067,382.484 C851.540,415.973 858.053,451.289 859.229,487.537 ZM839.277,487.537 L835.437,487.537 C834.276,454.123 828.261,421.563 817.725,390.664 L821.330,389.343 C832.018,420.661 838.113,453.666 839.277,487.537 ZM819.323,487.537 L815.484,487.537 C814.337,456.500 808.739,426.251 798.987,397.524 L802.593,396.203 C812.495,425.349 818.174,456.042 819.323,487.537 ZM799.371,487.537 L795.532,487.537 C794.401,458.876 789.219,430.938 780.250,404.383 L783.856,403.064 C792.975,430.036 798.237,458.419 799.371,487.537 ZM790.740,623.100 C806.525,585.912 815.075,545.688 815.672,504.166 L819.509,504.166 C818.911,546.255 810.239,587.028 794.224,624.716 L790.740,623.100 ZM859.390,504.166 C858.784,552.153 848.846,598.628 830.433,641.520 L826.949,639.903 C845.131,597.511 854.948,551.586 855.553,504.166 L859.390,504.166 ZM808.846,631.501 C825.828,591.712 835.011,548.637 835.613,504.166 L839.450,504.166 C838.848,549.204 829.542,592.827 812.329,633.118 L808.846,631.501 ZM799.569,504.166 C798.976,543.306 790.938,581.229 776.120,616.314 L772.637,614.698 C787.224,580.113 795.140,542.739 795.732,504.166 L799.569,504.166 ZM705.198,431.862 L708.804,430.541 C714.776,448.626 718.472,467.737 719.537,487.537 L715.692,487.537 C714.634,468.199 711.022,449.533 705.198,431.862 ZM703.566,582.644 L700.082,581.027 C709.796,557.211 715.392,531.297 715.968,504.166 L719.805,504.166 C719.227,531.873 713.505,558.335 703.566,582.644 ZM723.935,425.001 L727.541,423.681 C734.284,443.915 738.412,465.333 739.506,487.537 L735.666,487.537 C734.578,465.795 730.530,444.821 723.935,425.001 ZM721.672,591.046 L718.188,589.429 C729.074,563.050 735.322,534.292 735.908,504.166 L739.745,504.166 C739.157,534.867 732.784,564.174 721.672,591.046 ZM742.673,418.141 L746.278,416.821 C753.795,439.201 758.340,462.929 759.459,487.537 L755.619,487.537 C754.505,463.391 750.040,440.108 742.673,418.141 ZM739.777,599.448 L736.293,597.832 C748.354,568.891 755.254,537.286 755.848,504.166 L759.685,504.166 C759.089,537.862 752.064,570.015 739.777,599.448 ZM761.514,411.243 L765.119,409.923 C773.456,434.723 778.303,460.794 779.419,487.537 L775.580,487.537 C774.468,461.251 769.700,435.625 761.514,411.243 ZM758.017,607.913 L754.533,606.296 C767.925,574.315 775.206,539.790 775.792,504.166 L779.629,504.166 C779.042,540.358 771.639,575.431 758.017,607.913 ZM845.053,648.305 C864.435,603.313 874.884,554.535 875.493,504.166 L879.330,504.166 C878.720,555.102 868.150,604.428 848.537,649.922 L845.053,648.305 ZM919.211,504.166 C918.596,561.000 906.761,616.031 884.745,666.725 L881.261,665.108 C903.046,614.914 914.759,560.433 915.374,504.166 L919.211,504.166 ZM863.157,656.706 C883.740,609.113 894.822,557.483 895.434,504.166 L899.271,504.166 C898.658,558.051 887.455,610.229 866.641,658.323 L863.157,656.706 ZM574.835,432.739 C581.057,439.754 586.326,447.628 590.415,456.177 L586.802,457.500 C582.925,449.472 577.956,442.073 572.117,435.458 L574.835,432.739 ZM573.914,479.926 L577.526,478.604 C578.308,481.522 578.937,484.500 579.390,487.537 L575.510,487.537 C575.105,484.956 574.569,482.417 573.914,479.926 ZM588.093,547.387 C585.220,552.682 581.869,557.677 578.129,562.348 L575.398,559.617 C578.839,555.281 581.936,550.659 584.605,545.768 L588.093,547.387 ZM576.290,504.166 L580.137,504.166 C579.749,510.935 578.531,517.484 576.572,523.708 L573.059,522.078 C574.817,516.361 575.917,510.360 576.290,504.166 ZM995.163,504.166 L999.000,504.166 C998.404,569.958 985.220,633.787 959.772,693.956 C958.877,696.072 957.937,698.163 957.015,700.263 L953.534,698.648 C954.438,696.587 955.361,694.536 956.239,692.461 C981.485,632.767 994.568,569.442 995.163,504.166 Z"/>
</svg>
