<svg
        xmlns="http://www.w3.org/2000/svg"
        xmlns:xlink="http://www.w3.org/1999/xlink"
        width="33px" height="33px">
    <path fill-rule="evenodd" fill="rgb(76, 191, 187)"
          d="M28.166,28.163 C28.165,28.164 28.165,28.164 28.165,28.164 C28.164,28.164 28.164,28.165 28.164,28.165 C25.047,31.280 20.904,32.996 16.496,32.996 C12.089,32.996 7.945,31.280 4.829,28.165 C4.828,28.165 4.828,28.164 4.828,28.164 C4.827,28.164 4.827,28.164 4.827,28.163 C1.711,25.048 -0.005,20.906 -0.005,16.500 C-0.005,12.094 1.711,7.952 4.828,4.836 C7.945,1.721 12.089,0.005 16.496,0.005 C20.904,0.005 25.047,1.721 28.164,4.835 C28.164,4.836 28.164,4.836 28.165,4.836 C28.165,4.837 28.165,4.837 28.165,4.837 C31.282,7.953 32.998,12.095 32.998,16.500 C32.998,20.906 31.282,25.048 28.166,28.163 ZM16.496,31.062 C20.166,31.062 23.522,29.699 26.086,27.453 L23.136,24.504 C22.758,24.127 22.758,23.515 23.136,23.137 C24.597,21.677 25.516,19.820 25.795,17.809 C23.081,18.579 17.722,20.055 16.496,20.055 C14.536,20.055 12.941,18.460 12.941,16.500 C12.941,14.540 14.536,12.945 16.496,12.945 C17.722,12.945 23.081,14.421 25.795,15.192 C25.516,13.181 24.597,11.324 23.136,9.864 C23.136,9.864 23.136,9.864 23.136,9.863 C21.362,8.091 19.004,7.114 16.496,7.114 C13.988,7.114 11.630,8.091 9.857,9.863 C8.083,11.636 7.107,13.993 7.107,16.500 C7.107,19.007 8.083,21.364 9.857,23.137 C10.234,23.515 10.234,24.127 9.857,24.504 L6.907,27.453 C9.471,29.699 12.827,31.062 16.496,31.062 ZM23.290,16.500 C20.243,15.665 17.144,14.879 16.496,14.879 C15.602,14.879 14.874,15.606 14.874,16.500 C14.874,17.394 15.602,18.122 16.496,18.122 C17.144,18.122 20.243,17.336 23.290,16.500 ZM1.929,16.500 C1.929,20.168 3.292,23.523 5.539,26.086 L7.834,23.792 C6.112,21.754 5.173,19.199 5.173,16.500 C5.173,13.801 6.112,11.247 7.834,9.209 L5.539,6.914 C3.292,9.478 1.929,12.832 1.929,16.500 ZM16.496,1.938 C12.827,1.938 9.471,3.302 6.907,5.548 L9.202,7.842 C11.241,6.119 13.796,5.181 16.496,5.181 C19.196,5.181 21.752,6.119 23.791,7.842 L26.086,5.548 C23.522,3.302 20.166,1.938 16.496,1.938 ZM27.453,6.914 L25.158,9.209 C26.881,11.247 27.820,13.801 27.820,16.500 C27.820,19.199 26.881,21.754 25.158,23.792 L27.453,26.086 C29.700,23.523 31.064,20.168 31.064,16.500 C31.064,12.832 29.700,9.478 27.453,6.914 ZM13.942,23.011 L19.081,23.011 C19.596,23.011 20.014,23.457 20.014,24.009 C20.014,24.560 19.596,25.006 19.081,25.006 L13.942,25.006 C13.427,25.006 13.009,24.560 13.009,24.009 C13.009,23.457 13.427,23.011 13.942,23.011 Z"/>
</svg>