<svg
        xmlns="http://www.w3.org/2000/svg"
        xmlns:xlink="http://www.w3.org/1999/xlink"
        width="30px" height="30px">
    <path fill-rule="evenodd" fill="rgb(76, 191, 187)"
          d="M28.000,17.000 L28.000,29.000 C28.000,29.634 27.760,30.000 27.126,30.000 L2.874,30.000 C2.240,30.000 2.000,29.634 2.000,29.000 L2.000,17.000 C0.902,16.121 -0.000,14.684 -0.000,13.276 L-0.000,6.379 C-0.000,5.745 0.366,5.000 1.000,5.000 L9.000,5.000 L9.000,1.000 C9.000,0.366 9.194,0.000 9.828,0.000 L20.172,0.000 C20.806,0.000 21.000,0.366 21.000,1.000 L21.000,5.000 L29.000,5.000 C29.634,5.000 30.000,5.745 30.000,6.379 L30.000,13.276 C30.000,14.684 29.098,16.121 28.000,17.000 ZM4.000,28.000 L26.000,28.000 L26.000,18.000 C25.810,18.024 25.192,18.000 25.000,18.000 L20.000,18.000 L20.000,19.000 C20.000,19.634 18.634,20.000 18.000,20.000 L12.000,20.000 C11.366,20.000 10.000,19.634 10.000,19.000 L10.000,18.000 L5.000,18.000 C4.808,18.000 4.190,18.024 4.000,18.000 L4.000,28.000 ZM12.000,16.000 L12.000,18.000 L18.000,18.000 L18.000,16.000 L12.000,16.000 ZM16.000,14.000 L16.000,7.000 L14.000,7.000 L14.000,14.000 L16.000,14.000 ZM2.000,7.000 L2.000,14.000 C2.000,15.267 3.732,16.000 5.000,16.000 L10.000,16.000 L10.000,15.000 C10.000,14.366 10.366,14.000 11.000,14.000 L13.000,14.000 L13.000,7.000 L2.000,7.000 ZM19.000,2.000 L11.000,2.000 L11.000,5.000 L19.000,5.000 L19.000,2.000 ZM28.000,7.000 L17.000,7.000 L17.000,14.000 L19.000,14.000 C19.634,14.000 20.000,14.366 20.000,15.000 L20.000,16.000 L25.000,16.000 C26.268,16.000 28.000,14.268 28.000,13.000 L28.000,7.000 ZM20.184,24.003 L23.823,24.003 C24.481,24.003 25.016,24.448 25.016,24.996 C25.016,25.545 24.481,25.991 23.823,25.991 L20.184,25.991 C19.527,25.991 18.991,25.545 18.991,24.996 C18.991,24.448 19.527,24.003 20.184,24.003 Z"/>
</svg>