<svg
        xmlns="http://www.w3.org/2000/svg"
        xmlns:xlink="http://www.w3.org/1999/xlink"
        width="19px" height="17px">
    <path fill-rule="evenodd" fill="rgb(239, 91, 66)"
          d="M11.709,17.000 C9.916,17.000 8.135,16.927 6.094,16.071 C5.722,16.646 5.097,16.993 4.411,16.993 L0.822,16.993 C0.369,16.993 0.000,16.617 0.000,16.156 L0.000,6.405 C0.000,5.943 0.369,5.568 0.822,5.568 L5.608,5.568 C6.021,5.568 6.363,5.879 6.421,6.284 C7.324,5.823 8.242,5.292 9.022,4.590 C10.088,3.632 10.654,2.571 10.754,1.347 C10.814,0.604 11.463,-0.000 12.200,-0.000 L12.221,0.000 C12.917,0.011 13.568,0.295 14.056,0.799 C14.543,1.304 14.812,1.971 14.812,2.680 L14.812,2.872 C14.812,3.865 14.634,4.692 14.224,5.561 L16.981,5.561 C18.094,5.561 19.000,6.483 19.000,7.617 C19.000,8.065 18.858,8.495 18.595,8.850 C18.844,9.199 18.979,9.619 18.979,10.054 C18.979,10.692 18.696,11.279 18.211,11.668 C18.322,11.926 18.380,12.207 18.380,12.492 C18.380,13.130 18.097,13.717 17.613,14.105 C17.724,14.364 17.782,14.645 17.782,14.929 C17.782,16.063 16.877,16.986 15.764,16.986 L13.990,16.986 C13.560,16.986 13.153,16.990 12.758,16.993 C12.411,16.997 12.053,17.000 11.709,17.000 ZM6.437,14.399 C8.143,15.175 9.092,15.867 11.176,15.867 C11.512,15.867 11.930,15.870 12.294,15.867 C12.672,15.863 14.088,15.867 14.529,15.867 L15.647,15.867 C15.854,15.867 16.138,15.140 16.138,14.929 C16.138,14.719 15.970,14.548 15.764,14.548 C15.310,14.548 14.941,14.172 14.941,13.711 C14.941,13.249 15.310,12.873 15.764,12.873 L16.362,12.873 C16.568,12.873 16.736,12.702 16.736,12.492 C16.736,12.282 16.568,12.111 16.362,12.111 L15.785,12.111 C15.332,12.111 14.963,11.735 14.963,11.273 C14.963,10.811 15.332,10.436 15.785,10.436 L16.960,10.436 C17.166,10.436 17.334,10.265 17.334,10.054 C17.334,9.844 17.166,9.673 16.960,9.673 L15.785,9.673 C15.332,9.673 14.963,9.297 14.963,8.835 C14.963,8.374 15.332,7.998 15.785,7.998 L16.981,7.998 C17.188,7.998 17.356,7.827 17.356,7.617 C17.356,7.406 16.971,6.800 16.765,6.800 L11.176,6.800 C10.723,6.800 10.775,6.860 10.775,6.398 C10.775,5.936 11.144,5.560 11.597,5.560 L12.345,5.560 C12.891,4.669 13.168,3.984 13.168,2.872 L13.168,2.680 C13.168,2.195 12.824,1.785 12.372,1.693 C12.186,3.314 11.383,4.748 9.983,5.960 C8.809,6.975 7.457,7.639 6.469,8.124 L6.437,8.140 L6.437,14.399 ZM4.471,15.867 C4.510,15.845 4.471,14.944 4.471,14.733 L4.471,6.800 L1.118,6.800 L1.118,15.867 L2.235,15.867 L2.235,13.600 C2.235,12.662 3.353,12.662 3.353,13.600 L3.353,15.867 L4.471,15.867 Z"/>
</svg>