<svg
        xmlns="http://www.w3.org/2000/svg"
        xmlns:xlink="http://www.w3.org/1999/xlink"
        width="31px" height="39px">
    <path fill-rule="evenodd" fill="rgb(76, 191, 187)"
          d="M29.964,25.823 L21.653,33.935 L21.653,38.177 C21.653,38.623 21.280,38.987 20.823,38.987 L10.153,38.987 C9.696,38.987 9.323,38.623 9.323,38.177 L9.323,33.935 L1.011,25.823 C-0.352,24.491 -0.352,22.326 1.012,20.995 C1.672,20.350 2.550,19.995 3.485,19.995 C4.419,19.995 5.297,20.350 5.958,20.995 L9.490,24.442 L9.495,23.471 C9.512,20.263 12.200,17.652 15.488,17.652 C18.776,17.652 21.464,20.263 21.481,23.472 L21.486,24.443 L25.018,20.995 C25.678,20.350 26.556,19.995 27.491,19.995 C28.425,19.995 29.304,20.350 29.964,20.995 C31.328,22.326 31.328,24.491 29.964,25.823 ZM15.488,19.272 C13.098,19.272 11.154,21.170 11.154,23.502 C11.154,25.835 13.098,27.732 15.488,27.732 C17.877,27.732 19.821,25.835 19.821,23.502 C19.821,21.170 17.877,19.272 15.488,19.272 ZM28.790,22.141 C28.444,21.802 27.983,21.616 27.491,21.616 C27.001,21.616 26.539,21.802 26.192,22.140 L19.047,29.115 C18.890,29.268 18.681,29.352 18.459,29.352 L12.516,29.352 C12.298,29.352 12.084,29.266 11.929,29.115 L4.784,22.141 C4.437,21.802 3.975,21.616 3.485,21.616 C2.994,21.616 2.533,21.802 2.185,22.141 C1.469,22.840 1.469,23.978 2.185,24.677 L10.740,33.026 C10.897,33.179 10.983,33.383 10.983,33.599 L10.983,37.366 L19.993,37.366 L19.993,33.599 C19.993,33.383 20.079,33.179 20.236,33.026 L28.790,24.677 C29.507,23.978 29.507,22.840 28.790,22.141 ZM20.548,10.979 L21.448,16.102 L21.451,16.113 C21.464,16.172 21.471,16.234 21.471,16.295 C21.471,16.741 21.099,17.104 20.642,17.105 L20.639,17.105 C20.505,17.105 20.372,17.073 20.254,17.012 L15.488,14.567 L10.722,17.012 C10.603,17.073 10.470,17.105 10.336,17.105 C10.160,17.105 9.991,17.052 9.848,16.950 C9.591,16.768 9.464,16.464 9.518,16.158 L10.428,10.979 L6.573,7.311 C6.345,7.094 6.264,6.776 6.363,6.480 C6.461,6.185 6.718,5.973 7.033,5.929 L12.361,5.173 L14.743,0.461 C14.884,0.182 15.170,0.009 15.488,0.009 C15.806,0.009 16.091,0.182 16.232,0.461 L18.615,5.173 L23.943,5.929 C24.258,5.973 24.515,6.185 24.613,6.480 C24.711,6.776 24.631,7.094 24.403,7.311 L20.548,10.979 ZM17.944,6.716 C17.674,6.677 17.440,6.511 17.319,6.272 L15.488,2.650 L13.656,6.272 C13.535,6.511 13.302,6.677 13.031,6.716 L8.936,7.296 L11.900,10.116 C12.096,10.302 12.185,10.570 12.139,10.833 L11.438,14.814 L15.102,12.934 C15.220,12.873 15.354,12.841 15.488,12.841 C15.622,12.841 15.755,12.873 15.874,12.934 L19.537,14.814 L18.837,10.833 C18.791,10.570 18.881,10.302 19.076,10.116 L22.040,7.297 L17.944,6.716 Z"/>
</svg>