<svg
        xmlns="http://www.w3.org/2000/svg"
        xmlns:xlink="http://www.w3.org/1999/xlink"
        width="33px" height="24px">
    <path fill-rule="evenodd" fill="rgb(255, 255, 255)"
          d="M25.627,22.350 C25.462,22.460 25.268,22.518 25.066,22.518 C24.741,22.518 24.439,22.367 24.258,22.113 C23.953,21.689 24.064,21.101 24.505,20.803 C27.341,18.914 29.034,15.811 29.034,12.503 C29.034,9.201 27.341,6.098 24.505,4.203 C24.287,4.058 24.141,3.841 24.095,3.592 C24.050,3.346 24.108,3.097 24.259,2.892 C24.443,2.637 24.745,2.485 25.066,2.485 C25.268,2.485 25.461,2.544 25.627,2.656 C28.991,4.898 31.000,8.580 31.000,12.503 C31.000,16.422 28.991,20.103 25.627,22.350 ZM22.318,18.967 C22.153,19.077 21.959,19.135 21.757,19.135 C21.432,19.135 21.130,18.984 20.949,18.730 C20.644,18.306 20.755,17.718 21.196,17.420 C22.873,16.301 23.874,14.466 23.874,12.509 C23.874,10.553 22.873,8.717 21.196,7.598 C20.978,7.453 20.832,7.236 20.786,6.987 C20.740,6.741 20.798,6.492 20.949,6.287 C21.134,6.032 21.436,5.880 21.757,5.880 C21.958,5.880 22.152,5.939 22.318,6.051 C24.523,7.521 25.839,9.938 25.839,12.515 C25.839,15.079 24.523,17.491 22.318,18.967 ZM18.036,24.000 C15.890,24.000 13.785,23.452 11.949,22.416 C10.336,21.505 8.950,20.229 7.937,18.722 L3.468,18.722 C1.556,18.722 0.000,17.232 0.000,15.400 L0.000,9.600 C0.000,7.768 1.556,6.278 3.468,6.278 L7.937,6.278 C8.950,4.771 10.336,3.495 11.949,2.584 C13.785,1.548 15.890,1.000 18.036,1.000 C18.577,1.000 19.018,1.422 19.018,1.941 L19.018,23.058 C19.018,23.578 18.577,24.000 18.036,24.000 ZM7.506,8.161 L3.468,8.161 C2.639,8.161 1.965,8.806 1.965,9.600 L1.965,15.400 C1.965,16.194 2.639,16.839 3.468,16.839 L7.506,16.839 L7.506,8.161 ZM17.053,2.931 C13.940,3.226 11.116,4.920 9.471,7.484 L9.471,17.522 C11.116,20.086 13.940,21.780 17.053,22.075 L17.053,2.931 Z"/>
    <path fill-rule="evenodd" fill="rgb(255, 255, 255)"
          d="M8.337,1.749 L9.663,0.251 L32.663,20.251 L31.337,21.749 L8.337,1.749 Z"/>
</svg>