<svg
        xmlns="http://www.w3.org/2000/svg"
        xmlns:xlink="http://www.w3.org/1999/xlink"
        width="35px" height="27px">
    <defs>
        <linearGradient id="PSgrad_0" x1="0%" x2="68.2%" y1="73.135%" y2="0%">
            <stop offset="0%" stop-color="rgb(228,85,230)" stop-opacity="1"/>
            <stop offset="100%" stop-color="rgb(239,84,74)" stop-opacity="1"/>
        </linearGradient>

    </defs>
    <path fill-rule="evenodd" fill="url(#PSgrad_0)"
          d="M34.376,10.734 L30.208,12.911 L30.208,22.179 C30.208,22.422 30.133,22.659 29.992,22.857 C29.872,23.026 26.939,27.000 17.500,27.000 C8.061,27.000 5.128,23.026 5.008,22.857 C4.867,22.659 4.792,22.422 4.792,22.179 L4.792,12.911 L2.313,11.617 L2.313,14.158 C2.313,14.800 1.795,15.321 1.156,15.321 C0.518,15.321 -0.000,14.800 -0.000,14.158 L-0.000,9.701 C0.000,9.267 0.241,8.869 0.624,8.668 L16.967,0.130 C17.301,-0.044 17.699,-0.044 18.033,0.130 L34.376,8.668 C34.759,8.869 35.000,9.267 35.000,9.701 C35.000,10.135 34.760,10.534 34.376,10.734 ZM7.105,21.730 C7.873,22.473 10.721,24.672 17.500,24.672 C24.279,24.672 27.127,22.473 27.895,21.730 L27.895,14.120 L18.033,19.272 C17.866,19.359 17.683,19.403 17.500,19.403 C17.317,19.403 17.134,19.359 16.967,19.272 L7.105,14.120 L7.105,21.730 ZM17.500,2.474 L3.667,9.701 L17.500,16.927 L31.333,9.701 L17.500,2.474 ZM1.157,16.348 C1.795,16.348 2.313,16.869 2.313,17.512 L2.313,18.919 C2.313,19.561 1.795,20.083 1.157,20.083 C0.518,20.083 0.000,19.561 0.000,18.919 L0.000,17.512 C0.000,16.869 0.518,16.348 1.157,16.348 Z"/>
</svg>