<svg
        xmlns="http://www.w3.org/2000/svg"
        xmlns:xlink="http://www.w3.org/1999/xlink"
        width="27px" height="27px">
    <defs>
        <linearGradient id="PSgrad_0" x1="0%" x2="68.2%" y1="73.135%" y2="0%">
            <stop offset="0%" stop-color="rgb(119,192,239)" stop-opacity="1"/>
            <stop offset="100%" stop-color="rgb(37,121,207)" stop-opacity="1"/>
        </linearGradient>

    </defs>
    <path fill-rule="evenodd" fill="url(#PSgrad_0)"
          d="M20.873,14.316 L20.873,2.175 L2.236,2.175 L2.236,24.825 L10.809,24.825 C11.424,24.825 11.927,25.315 11.927,25.913 C11.927,26.511 11.424,27.000 10.809,27.000 L1.118,27.000 C0.503,27.000 -0.000,26.511 -0.000,25.913 L-0.000,1.087 C-0.000,0.489 0.503,0.000 1.118,0.000 L21.991,0.000 C22.606,0.000 23.109,0.489 23.109,1.087 L23.109,14.316 C23.109,14.913 22.606,15.403 21.991,15.403 C21.376,15.403 20.873,14.913 20.873,14.316 ZM26.632,16.961 C26.166,16.562 25.458,16.598 25.048,17.052 L18.916,23.684 L15.841,20.802 C15.394,20.386 14.686,20.404 14.257,20.839 C13.828,21.274 13.847,21.963 14.294,22.379 L18.208,26.040 C18.413,26.239 18.693,26.347 18.991,26.347 C19.009,26.347 19.009,26.347 19.028,26.347 C19.326,26.330 19.624,26.203 19.811,25.986 L26.706,18.520 C27.135,18.049 27.098,17.360 26.632,16.961 ZM16.773,6.342 L6.709,6.342 C6.094,6.342 5.591,6.832 5.591,7.429 C5.591,8.028 6.094,8.517 6.709,8.517 L16.773,8.517 C17.388,8.517 17.891,8.028 17.891,7.429 C17.891,6.832 17.388,6.342 16.773,6.342 ZM17.891,13.409 C17.891,12.812 17.388,12.322 16.773,12.322 L6.709,12.322 C6.094,12.322 5.591,12.812 5.591,13.409 C5.591,14.007 6.094,14.496 6.709,14.496 L16.773,14.496 C17.388,14.496 17.891,14.007 17.891,13.409 ZM6.709,18.121 C6.094,18.121 5.591,18.610 5.591,19.208 C5.591,19.806 6.094,20.295 6.709,20.295 L9.691,20.295 C10.306,20.295 10.809,19.806 10.809,19.208 C10.809,18.610 10.306,18.121 9.691,18.121 L6.709,18.121 Z"/>
</svg>