<svg
        xmlns="http://www.w3.org/2000/svg"
        xmlns:xlink="http://www.w3.org/1999/xlink"
        width="31px" height="39px">
    <defs>
        <linearGradient id="PSgrad_0" x1="0%" x2="68.2%" y1="73.135%" y2="0%">
            <stop offset="0%" stop-color="rgb(230,177,85)" stop-opacity="1"/>
            <stop offset="100%" stop-color="rgb(216,82,23)" stop-opacity="1"/>
        </linearGradient>

    </defs>
    <path fill-rule="evenodd" fill="url(#PSgrad_0)"
          d="M30.749,16.155 L28.614,18.933 L29.070,22.403 C29.140,22.935 28.841,23.450 28.343,23.655 L25.097,24.993 L23.754,28.225 C23.627,28.530 23.384,28.763 23.081,28.879 L23.081,37.812 C23.081,38.245 22.844,38.644 22.463,38.853 C22.287,38.949 22.088,39.000 21.888,39.000 C21.661,39.000 21.440,38.936 21.249,38.815 L15.497,35.182 L9.745,38.815 C9.554,38.936 9.333,39.000 9.106,39.000 C8.906,39.000 8.707,38.949 8.531,38.853 C8.150,38.644 7.913,38.245 7.913,37.812 L7.913,28.879 C7.611,28.764 7.367,28.531 7.240,28.225 L5.897,24.993 L2.651,23.655 C2.153,23.449 1.854,22.935 1.924,22.403 L2.380,18.933 L0.245,16.155 C-0.082,15.730 -0.082,15.136 0.245,14.710 L2.380,11.933 L1.924,8.463 C1.854,7.931 2.153,7.416 2.651,7.211 L5.897,5.873 L7.241,2.640 C7.426,2.195 7.859,1.907 8.343,1.907 C8.394,1.907 8.447,1.910 8.498,1.917 L11.982,2.371 L14.772,0.245 C14.979,0.087 15.236,0.000 15.497,0.000 C15.758,0.000 16.015,0.087 16.222,0.245 L19.012,2.371 L22.496,1.917 C22.548,1.910 22.600,1.907 22.651,1.907 C23.136,1.907 23.568,2.195 23.754,2.640 L25.097,5.873 L28.343,7.211 C28.841,7.416 29.140,7.931 29.070,8.463 L28.614,11.932 L30.749,14.710 C31.076,15.136 31.076,15.730 30.749,16.155 ZM10.299,35.651 L14.858,32.772 C15.049,32.651 15.270,32.587 15.497,32.587 C15.724,32.587 15.945,32.651 16.136,32.772 L20.695,35.651 L20.695,28.714 L19.012,28.494 L16.222,30.621 C16.015,30.779 15.758,30.866 15.497,30.866 C15.236,30.866 14.979,30.779 14.772,30.621 L11.982,28.494 L10.299,28.714 L10.299,35.651 ZM26.585,9.058 L23.728,7.880 C23.433,7.759 23.203,7.530 23.082,7.237 L21.899,4.392 L18.833,4.792 C18.782,4.798 18.730,4.801 18.678,4.801 C18.418,4.801 18.160,4.714 17.953,4.557 L15.497,2.685 L13.041,4.557 C12.834,4.714 12.577,4.801 12.316,4.801 C12.264,4.801 12.212,4.798 12.161,4.792 L9.096,4.392 L7.913,7.237 C7.791,7.530 7.561,7.759 7.267,7.880 L4.409,9.058 L4.811,12.110 C4.852,12.424 4.768,12.736 4.575,12.987 L2.695,15.433 L4.575,17.878 C4.768,18.130 4.852,18.441 4.811,18.755 L4.409,21.808 L7.267,22.985 C7.561,23.107 7.791,23.336 7.912,23.629 L9.095,26.474 L12.161,26.074 C12.212,26.068 12.264,26.065 12.316,26.065 C12.577,26.065 12.834,26.151 13.041,26.309 L15.497,28.181 L17.953,26.309 C18.160,26.151 18.417,26.065 18.678,26.065 C18.730,26.065 18.782,26.068 18.833,26.074 L21.898,26.474 L23.081,23.629 C23.203,23.336 23.433,23.107 23.727,22.985 L26.585,21.808 L26.183,18.755 C26.142,18.441 26.226,18.130 26.419,17.878 L28.299,15.433 L26.419,12.987 C26.226,12.736 26.142,12.425 26.183,12.110 L26.585,9.058 ZM15.498,22.993 C11.360,22.993 7.993,19.630 7.993,15.497 C7.993,14.027 8.419,12.602 9.225,11.379 C9.391,11.128 9.670,10.978 9.971,10.978 C10.146,10.978 10.315,11.029 10.461,11.125 C10.660,11.256 10.796,11.456 10.844,11.689 C10.893,11.922 10.847,12.160 10.716,12.359 C10.102,13.291 9.777,14.375 9.777,15.497 C9.777,18.647 12.344,21.211 15.498,21.211 C18.652,21.211 21.218,18.647 21.218,15.497 C21.218,13.084 19.690,10.920 17.416,10.111 C16.952,9.946 16.710,9.435 16.874,8.973 C17.001,8.618 17.339,8.380 17.715,8.380 C17.817,8.380 17.917,8.397 18.014,8.432 C20.998,9.492 23.003,12.331 23.003,15.497 C23.003,19.630 19.636,22.993 15.498,22.993 ZM15.498,9.782 C14.178,9.782 12.890,10.242 11.871,11.077 C11.712,11.207 11.511,11.279 11.306,11.279 C11.037,11.279 10.786,11.160 10.616,10.953 C10.304,10.573 10.359,10.011 10.739,9.699 C12.076,8.604 13.766,8.000 15.498,8.000 C15.990,8.000 16.390,8.399 16.390,8.891 C16.390,9.382 15.990,9.782 15.498,9.782 Z"/>
</svg>