<svg
        xmlns="http://www.w3.org/2000/svg"
        xmlns:xlink="http://www.w3.org/1999/xlink"
        width="33px" height="31px">
    <path fill-rule="evenodd" fill="rgb(76, 191, 187)"
          d="M32.999,2.056 C32.721,7.410 29.993,12.366 25.512,15.653 L24.164,16.642 L24.164,19.781 C24.164,22.590 23.007,25.230 20.906,27.216 L17.179,30.740 C16.999,30.910 16.760,31.003 16.506,31.003 C16.390,31.003 16.275,30.983 16.166,30.944 C15.815,30.816 15.577,30.505 15.557,30.151 L15.181,23.229 C15.024,23.331 14.835,23.387 14.644,23.387 C14.486,23.387 14.329,23.349 14.190,23.277 C14.068,23.214 13.942,23.148 13.815,23.077 C13.560,23.277 13.294,23.487 13.033,23.692 L13.004,23.715 C12.564,24.063 12.108,24.422 11.712,24.726 C11.543,24.855 11.330,24.926 11.113,24.926 C10.973,24.926 10.833,24.896 10.707,24.840 C9.788,24.429 8.966,23.881 8.263,23.210 C7.577,22.556 7.013,21.795 6.589,20.948 C6.430,20.630 6.483,20.252 6.721,19.984 L8.447,18.048 C8.351,17.895 8.257,17.740 8.168,17.585 C8.001,17.294 8.017,16.946 8.202,16.671 L0.925,16.318 C0.551,16.300 0.222,16.074 0.087,15.743 C-0.048,15.412 0.037,15.036 0.302,14.785 L4.030,11.261 C6.131,9.275 8.924,8.182 11.895,8.182 C11.904,8.182 11.913,8.182 11.923,8.182 L15.406,8.279 L16.698,6.775 C20.101,2.815 25.141,0.358 30.526,0.033 L31.117,-0.003 C31.156,-0.005 31.194,-0.006 31.232,-0.006 C31.696,-0.006 32.153,0.170 32.484,0.479 C32.846,0.816 33.039,1.285 33.014,1.764 L32.999,2.056 ZM17.346,28.040 L19.562,25.945 C21.304,24.299 22.263,22.110 22.263,19.781 L22.263,18.037 L17.012,21.888 L17.346,28.040 ZM9.613,21.945 C10.023,22.336 10.488,22.675 10.997,22.956 C11.254,22.755 11.524,22.542 11.786,22.335 C11.786,22.335 12.061,22.118 12.172,22.031 C11.660,21.656 11.172,21.249 10.718,20.818 L10.687,20.789 C10.290,20.409 9.913,20.006 9.563,19.585 L8.587,20.680 C8.874,21.144 9.218,21.568 9.613,21.945 ZM11.881,9.979 C9.423,9.982 7.112,10.889 5.374,12.532 L3.158,14.627 L9.679,14.944 L13.897,10.035 L11.881,9.979 ZM30.648,1.826 C25.790,2.119 21.243,4.336 18.174,7.908 L10.153,17.243 C10.522,17.816 10.943,18.364 11.410,18.878 L14.524,15.934 C14.704,15.764 14.943,15.671 15.196,15.671 C15.450,15.671 15.689,15.764 15.869,15.934 C16.239,16.284 16.239,16.855 15.869,17.205 L12.750,20.153 C13.318,20.621 13.927,21.043 14.565,21.409 L24.347,14.233 C28.389,11.268 30.850,6.798 31.100,1.968 L31.109,1.798 L30.648,1.826 ZM23.615,11.912 C22.808,11.912 22.051,11.616 21.482,11.078 C20.913,10.540 20.599,9.823 20.599,9.061 C20.599,8.298 20.913,7.582 21.482,7.044 C22.052,6.506 22.809,6.209 23.615,6.209 C24.421,6.209 25.179,6.506 25.748,7.044 C26.317,7.582 26.631,8.298 26.631,9.061 C26.631,9.823 26.317,10.540 25.748,11.078 C25.179,11.616 24.422,11.912 23.615,11.912 ZM24.404,8.315 C24.193,8.116 23.913,8.006 23.615,8.006 C23.317,8.006 23.037,8.116 22.826,8.315 C22.616,8.514 22.500,8.779 22.500,9.061 C22.500,9.343 22.616,9.608 22.826,9.807 C23.036,10.005 23.317,10.115 23.615,10.115 C23.914,10.115 24.194,10.005 24.404,9.807 C24.839,9.396 24.839,8.726 24.404,8.315 ZM17.215,15.759 C16.691,15.759 16.264,15.356 16.264,14.860 C16.264,14.365 16.691,13.961 17.215,13.961 C17.739,13.961 18.166,14.365 18.166,14.860 C18.166,15.356 17.739,15.759 17.215,15.759 ZM0.974,29.205 C1.499,29.205 1.926,29.608 1.926,30.105 C1.926,30.601 1.499,31.004 0.974,31.004 C0.449,31.004 0.022,30.601 0.022,30.105 C0.022,29.608 0.449,29.205 0.974,29.205 ZM4.158,23.455 L5.676,22.740 C5.809,22.678 5.952,22.646 6.099,22.646 C6.463,22.646 6.789,22.837 6.951,23.144 C7.064,23.359 7.082,23.603 7.001,23.830 C6.921,24.058 6.751,24.242 6.524,24.349 L5.006,25.064 C4.446,25.327 4.071,25.857 4.029,26.447 L3.968,27.278 C3.968,27.286 3.967,27.304 3.986,27.322 C4.004,27.339 4.021,27.339 4.027,27.339 L4.912,27.282 C5.536,27.242 6.097,26.888 6.376,26.358 L7.131,24.923 C7.293,24.616 7.620,24.425 7.983,24.425 C8.129,24.425 8.275,24.458 8.406,24.520 C8.633,24.627 8.803,24.811 8.884,25.038 C8.964,25.266 8.946,25.510 8.833,25.725 L8.077,27.159 C7.499,28.257 6.336,28.991 5.041,29.075 L4.162,29.132 C4.118,29.135 4.073,29.136 4.028,29.136 C3.505,29.136 3.012,28.943 2.642,28.593 C2.241,28.214 2.033,27.690 2.072,27.156 L2.132,26.325 C2.221,25.101 2.997,24.001 4.158,23.455 Z"/>
</svg>