<svg
        xmlns="http://www.w3.org/2000/svg"
        xmlns:xlink="http://www.w3.org/1999/xlink"
        width="28px" height="26px">
    <path fill-rule="evenodd" fill="rgb(255, 255, 255)"
          d="M27.989,1.722 C27.759,6.194 25.501,10.333 21.794,13.078 L20.679,13.904 L20.679,16.526 C20.679,18.871 19.722,21.076 17.983,22.735 L14.899,25.678 C14.750,25.819 14.553,25.898 14.342,25.898 C14.246,25.898 14.151,25.881 14.061,25.848 C13.771,25.741 13.573,25.482 13.557,25.186 L13.246,19.405 C13.116,19.490 12.960,19.537 12.801,19.537 C12.671,19.537 12.541,19.505 12.426,19.445 C12.325,19.393 12.221,19.337 12.115,19.278 C11.904,19.445 11.684,19.620 11.468,19.792 L11.444,19.811 C11.080,20.101 10.703,20.401 10.376,20.655 C10.236,20.763 10.060,20.822 9.880,20.822 C9.764,20.822 9.648,20.797 9.544,20.750 C8.784,20.407 8.104,19.949 7.522,19.390 C6.954,18.843 6.488,18.207 6.137,17.500 C6.005,17.235 6.048,16.919 6.246,16.695 L7.674,15.078 C7.594,14.950 7.517,14.820 7.443,14.691 C7.305,14.448 7.318,14.157 7.471,13.928 L1.450,13.633 C1.140,13.618 0.868,13.430 0.756,13.153 C0.645,12.877 0.715,12.562 0.934,12.353 L4.019,9.410 C5.757,7.751 8.068,6.838 10.527,6.838 C10.534,6.838 10.542,6.838 10.550,6.839 L13.432,6.919 L14.501,5.663 C17.316,2.356 21.487,0.304 25.943,0.033 L26.432,0.003 C26.463,0.001 26.495,-0.000 26.527,-0.000 C26.911,-0.000 27.289,0.148 27.563,0.405 C27.862,0.687 28.022,1.078 28.001,1.478 L27.989,1.722 ZM15.037,23.423 L16.871,21.673 C18.312,20.298 19.106,18.470 19.106,16.526 L19.106,15.068 L14.761,18.285 L15.037,23.423 ZM8.639,18.333 C8.978,18.659 9.363,18.942 9.784,19.177 C9.997,19.009 10.220,18.831 10.437,18.658 C10.437,18.658 10.664,18.478 10.756,18.404 C10.332,18.091 9.929,17.752 9.553,17.391 L9.527,17.367 C9.199,17.050 8.887,16.713 8.597,16.362 L7.790,17.276 C8.027,17.663 8.312,18.018 8.639,18.333 ZM10.515,8.339 C8.481,8.342 6.570,9.099 5.131,10.472 L3.298,12.221 L8.694,12.485 L12.183,8.386 L10.515,8.339 ZM26.043,1.531 C22.024,1.775 18.262,3.627 15.722,6.610 L9.085,14.406 C9.391,14.884 9.739,15.342 10.126,15.771 L12.702,13.313 C12.851,13.171 13.048,13.093 13.258,13.093 C13.469,13.093 13.666,13.171 13.815,13.313 C14.121,13.605 14.121,14.081 13.815,14.374 L11.234,16.836 C11.704,17.227 12.208,17.579 12.736,17.885 L20.830,11.892 C24.174,9.416 26.211,5.682 26.418,1.649 L26.425,1.507 L26.043,1.531 ZM20.224,9.953 C19.557,9.953 18.930,9.706 18.459,9.257 C17.988,8.807 17.729,8.209 17.729,7.572 C17.729,6.935 17.988,6.337 18.459,5.888 C18.931,5.438 19.558,5.191 20.224,5.191 C20.891,5.191 21.518,5.438 21.990,5.888 C22.460,6.337 22.720,6.935 22.720,7.572 C22.720,8.209 22.460,8.807 21.989,9.257 C21.519,9.706 20.892,9.953 20.224,9.953 ZM20.877,6.949 C20.703,6.783 20.471,6.692 20.224,6.692 C19.978,6.692 19.746,6.783 19.572,6.949 C19.398,7.115 19.302,7.337 19.302,7.572 C19.302,7.808 19.398,8.029 19.572,8.195 C19.746,8.361 19.977,8.453 20.224,8.453 C20.471,8.453 20.703,8.361 20.877,8.195 C21.237,7.852 21.237,7.293 20.877,6.949 ZM14.929,13.166 C14.495,13.166 14.142,12.829 14.142,12.416 C14.142,12.002 14.495,11.665 14.929,11.665 C15.362,11.665 15.715,12.002 15.715,12.416 C15.715,12.829 15.362,13.166 14.929,13.166 ZM1.491,24.395 C1.925,24.395 2.278,24.733 2.278,25.147 C2.278,25.561 1.925,25.898 1.491,25.898 C1.056,25.898 0.703,25.561 0.703,25.147 C0.703,24.733 1.056,24.395 1.491,24.395 ZM4.125,19.593 L5.381,18.997 C5.491,18.944 5.609,18.918 5.731,18.918 C6.032,18.918 6.302,19.078 6.436,19.334 C6.530,19.514 6.545,19.717 6.478,19.907 C6.411,20.097 6.271,20.251 6.082,20.340 L4.827,20.937 C4.363,21.157 4.053,21.600 4.018,22.093 L3.968,22.787 C3.968,22.793 3.967,22.808 3.983,22.823 C3.997,22.838 4.012,22.838 4.017,22.838 L4.749,22.790 C5.265,22.756 5.729,22.460 5.960,22.018 L6.585,20.820 C6.719,20.563 6.989,20.404 7.290,20.404 C7.410,20.404 7.531,20.431 7.640,20.483 C7.828,20.572 7.968,20.726 8.035,20.916 C8.102,21.106 8.087,21.310 7.993,21.489 L7.368,22.687 C6.889,23.604 5.927,24.217 4.856,24.287 L4.129,24.335 C4.092,24.337 4.054,24.338 4.018,24.338 C3.584,24.338 3.177,24.177 2.870,23.885 C2.539,23.568 2.367,23.131 2.399,22.684 L2.449,21.990 C2.522,20.968 3.165,20.050 4.125,19.593 Z"/>
</svg>