<svg
        xmlns="http://www.w3.org/2000/svg"
        xmlns:xlink="http://www.w3.org/1999/xlink"
        width="35px" height="35px">
    <defs>
        <linearGradient id="PSgrad_0" x1="0%" x2="68.2%" y1="73.135%" y2="0%">
            <stop offset="0%" stop-color="rgb(119,192,239)" stop-opacity="1"/>
            <stop offset="100%" stop-color="rgb(37,121,207)" stop-opacity="1"/>
        </linearGradient>

    </defs>
    <path fill-rule="evenodd" fill="url(#PSgrad_0)"
          d="M34.475,24.582 L31.813,26.418 C31.176,27.761 30.292,28.952 29.184,29.959 L28.851,30.261 L28.851,33.784 C28.851,34.454 28.306,35.000 27.635,35.000 L22.568,35.000 C21.897,35.000 21.351,34.454 21.351,33.784 L21.351,32.906 L15.676,32.906 L15.676,33.784 C15.676,34.454 15.130,35.000 14.459,35.000 L9.392,35.000 C8.721,35.000 8.176,34.454 8.176,33.784 L8.176,30.250 C6.616,28.941 5.437,27.239 4.762,25.321 C4.337,24.112 4.122,22.845 4.122,21.554 C4.122,21.288 4.132,21.016 4.151,20.743 C3.349,20.713 2.573,20.460 1.898,20.007 C0.709,19.211 -0.000,17.894 -0.000,16.487 L-0.000,15.473 C-0.000,14.802 0.546,14.257 1.216,14.257 C1.887,14.257 2.432,14.802 2.432,15.473 L2.432,16.487 C2.432,17.082 2.739,17.643 3.252,17.987 C3.566,18.197 3.933,18.309 4.315,18.309 C4.410,18.309 4.505,18.302 4.601,18.288 C5.284,16.020 6.698,13.979 8.593,12.531 C10.585,11.008 12.965,10.202 15.473,10.202 L22.476,10.216 C23.470,8.936 25.012,8.175 26.622,8.175 L29.662,8.175 C30.038,8.175 30.386,8.346 30.618,8.640 C30.850,8.935 30.932,9.314 30.844,9.679 L29.844,13.799 C30.543,14.545 31.137,15.381 31.611,16.283 L33.784,16.283 C34.454,16.283 35.000,16.829 35.000,17.500 L35.000,23.581 C35.000,23.981 34.804,24.355 34.475,24.582 ZM32.568,18.703 C31.955,18.703 31.548,18.706 31.270,18.708 C31.119,18.709 31.008,18.709 30.922,18.709 C30.702,18.709 30.638,18.705 30.549,18.679 C30.364,18.651 29.943,18.446 29.742,18.011 L29.723,17.970 L29.723,17.968 C29.245,16.886 28.572,15.926 27.722,15.112 L27.601,15.112 L27.600,14.992 C27.325,14.688 27.219,14.264 27.325,13.864 L28.115,10.608 L26.622,10.608 C25.612,10.608 24.675,11.150 24.178,12.022 C23.962,12.400 23.557,12.635 23.121,12.635 L15.473,12.622 C13.091,12.622 10.853,13.548 9.169,15.230 C7.483,16.916 6.554,19.162 6.554,21.554 C6.554,22.569 6.723,23.565 7.057,24.514 C7.643,26.180 8.703,27.624 10.122,28.691 C10.426,28.919 10.608,29.283 10.608,29.663 L10.608,32.568 L13.243,32.568 L13.243,31.689 C13.243,31.019 13.789,30.473 14.459,30.473 L22.568,30.473 C23.238,30.473 23.784,31.019 23.784,31.689 L23.784,32.568 L26.419,32.568 L26.419,29.722 C26.419,29.381 26.564,29.052 26.817,28.822 L27.548,28.158 C28.477,27.315 29.232,26.265 29.731,25.121 C29.822,24.913 29.969,24.736 30.155,24.607 L32.568,22.942 L32.568,18.703 ZM25.608,20.730 C24.938,20.730 24.392,20.184 24.392,19.514 C24.392,18.843 24.938,18.297 25.608,18.297 C26.279,18.297 26.824,18.843 26.824,19.514 C26.824,20.184 26.279,20.730 25.608,20.730 ZM20.541,18.689 L14.459,18.689 C13.789,18.689 13.243,18.144 13.243,17.473 C13.243,16.803 13.789,16.257 14.459,16.257 L20.541,16.257 C21.211,16.257 21.757,16.803 21.757,17.473 C21.757,18.144 21.211,18.689 20.541,18.689 ZM17.500,8.513 C15.153,8.513 13.243,6.604 13.243,4.256 C13.243,1.909 15.153,-0.000 17.500,-0.000 C19.847,-0.000 21.757,1.909 21.757,4.256 C21.757,6.604 19.847,8.513 17.500,8.513 ZM17.500,2.433 C16.494,2.433 15.676,3.251 15.676,4.256 C15.676,5.263 16.494,6.081 17.500,6.081 C18.506,6.081 19.324,5.263 19.324,4.256 C19.324,3.251 18.506,2.433 17.500,2.433 Z"/>
</svg>