<svg
        xmlns="http://www.w3.org/2000/svg"
        xmlns:xlink="http://www.w3.org/1999/xlink"
        width="19px" height="12px">
    <path fill-rule="evenodd" fill="rgb(26, 169, 134)"
          d="M18.865,6.405 C18.696,6.633 14.656,12.000 9.500,12.000 C4.335,12.000 0.303,6.633 0.134,6.405 C-0.045,6.162 -0.045,5.837 0.134,5.595 C0.304,5.367 4.339,-0.000 9.500,-0.000 C14.660,-0.000 18.696,5.367 18.865,5.595 C19.045,5.837 19.045,6.163 18.865,6.405 ZM9.500,1.371 C5.785,1.371 2.548,4.852 1.583,6.000 C2.550,7.147 5.794,10.628 9.500,10.628 C13.214,10.628 16.452,7.147 17.417,6.000 C16.450,4.853 13.206,1.371 9.500,1.371 ZM9.500,9.052 C7.794,9.052 6.407,7.682 6.407,6.000 C6.407,4.317 7.794,2.949 9.500,2.949 C11.205,2.949 12.593,4.317 12.593,6.000 C12.593,7.682 11.205,9.052 9.500,9.052 ZM9.500,4.087 C8.431,4.087 7.561,4.945 7.561,6.000 C7.561,7.055 8.431,7.913 9.500,7.913 C10.569,7.913 11.439,7.055 11.439,6.000 C11.439,4.945 10.569,4.087 9.500,4.087 Z"/>
</svg>